<?xml version="1.0" encoding="iso-8859-1"?>
<!-- Generator: Adobe Illustrator 19.0.0, SVG Export Plug-In . SVG Version: 6.00 Build 0)  -->
<svg version="1.1" id="Layer_1" xmlns="http://www.w3.org/2000/svg" xmlns:xlink="http://www.w3.org/1999/xlink" x="0px" y="0px"
	 viewBox="0 0 511.996 511.996" style="enable-background:new 0 0 511.996 511.996;" xml:space="preserve">
<rect x="59.201" y="249.191" transform="matrix(-0.7071 -0.7071 0.7071 -0.7071 -110.3569 634.1467)" style="fill:#FAC15C;" width="33.912" height="181.476"/>
<g>
	
		<rect x="83.175" y="287.215" transform="matrix(-0.7071 -0.7071 0.7071 -0.7071 -120.2977 773.9009)" style="fill:#F9B233;" width="33.912" height="249.3"/>
	
		<rect x="155.118" y="345.105" transform="matrix(-0.7071 -0.7071 0.7071 -0.7071 -14.4391 865.7047)" style="fill:#F9B233;" width="33.912" height="181.476"/>
</g>
<polygon style="fill:#134A79;" points="296.177,119.899 163.774,155.356 115.815,203.315 164.288,251.789 246.219,201.83 "/>
<polygon style="fill:#092339;" points="392.096,215.819 310.166,265.776 260.208,347.707 308.68,396.181 356.641,348.221 "/>
<polygon style="fill:#D2E3F1;" points="384.103,31.973 212.247,203.828 260.208,283.761 464.036,79.933 "/>
<polygon style="fill:#77AAD4;" points="448.05,63.947 244.22,267.775 308.167,299.748 480.022,127.892 "/>
<polygon style="fill:#1D71B8;" points="212.247,203.828 164.288,251.789 212.247,299.748 252.213,291.755 260.208,251.789 "/>
<rect x="226.285" y="265.827" transform="matrix(-0.7071 0.7071 -0.7071 -0.7071 656.1326 327.6992)" style="fill:#134A79;" width="67.825" height="67.825"/>
<rect x="367.144" y="110.946" transform="matrix(-0.7071 0.7071 -0.7071 -0.7071 746.1411 -53.2572)" style="fill:#FFFFFF;" width="33.912" height="33.912"/>
<polygon style="fill:#F9B233;" points="511.995,0 384.103,31.973 432.063,79.933 464.036,79.933 "/>
<polygon style="fill:#FB8454;" points="480.022,127.892 511.995,0 432.063,79.933 "/>
<g>
</g>
<g>
</g>
<g>
</g>
<g>
</g>
<g>
</g>
<g>
</g>
<g>
</g>
<g>
</g>
<g>
</g>
<g>
</g>
<g>
</g>
<g>
</g>
<g>
</g>
<g>
</g>
<g>
</g>
</svg>
