<?xml version="1.0" encoding="utf-8"?>
<!-- Generator: Adobe Illustrator 19.0.0, SVG Export Plug-In . SVG Version: 6.00 Build 0)  -->
<svg version="1.1" id="Isolation_Mode" xmlns="http://www.w3.org/2000/svg" xmlns:xlink="http://www.w3.org/1999/xlink" x="0px"
	 y="0px" viewBox="0 0 1200 1200" style="enable-background:new 0 0 1200 1200;" xml:space="preserve">
<style type="text/css">
	.st0{fill:#626678;}
</style>
<g>
	<g>
		<path class="st0" d="M346.9,632.3c-3.8-0.1-6.5-1.1-10.8-3.6C340.4,631.2,343.1,632.2,346.9,632.3z"/>
		<path class="st0" d="M336.1,628.8c-1.2-0.7-2.6-1.5-4.1-2.5C333.5,627.2,334.9,628.1,336.1,628.8z"/>
		<path class="st0" d="M233.6,507.5c-1.4-0.6-2.9-1.2-4.5-1.9C230.7,506.3,232.1,506.9,233.6,507.5z"/>
		<path class="st0" d="M247.6,513.5c-0.5,5.9-0.9,11.8-1.4,17.7l0,0C246.7,525.3,247.2,519.4,247.6,513.5
			C247.6,513.5,247.6,513.5,247.6,513.5z"/>
		<path class="st0" d="M367.7,286.2C367.7,286.2,367.7,286.2,367.7,286.2c5.6-4.9,11.2-9.8,17.8-15.6
			C378.9,276.4,373.3,281.3,367.7,286.2z"/>
		<path class="st0" d="M206.2,550.5c-0.5,1-1.3,2-1.7,2.9C204.9,552.5,205.7,551.5,206.2,550.5L206.2,550.5z"/>
		<path class="st0" d="M400.5,760.7c-0.3,3.4,1.2,6.4,7.3,8.6c-0.7,2.1-1.4,4.3-2.2,6.4c0.7-2.1,1.4-4.3,2.2-6.4
			C401.6,767.2,400.2,764.1,400.5,760.7z"/>
		<path class="st0" d="M497.4,459.9c10.8-7.2,21.6-14.3,32.4-21.4c8.9,2.3,16.8,1.8,22.6-5.3c-5.8,7.2-13.7,7.6-22.6,5.3
			C519,445.6,508.2,452.7,497.4,459.9c-5.6,2.9-11.3,5.8-16.9,8.7l0,0C486.1,465.7,491.8,462.8,497.4,459.9z"/>
		<path class="st0" d="M370.4,676.2c4.6-6.1,9.5-12.7,14.5-19.3c0,0,0,0,0,0C379.9,663.5,374.9,670.1,370.4,676.2z"/>
		<path class="st0" d="M417.2,711.7c-0.8-3.2-3.2-4.5-7.7-4.4C414,707.1,416.3,708.4,417.2,711.7z"/>
		<path class="st0" d="M422.3,756.5c-1.3-12-2.3-21.3-3.2-30.6c7.8-0.6,15.6-1.1,23.6-1.7c-8,0.6-15.8,1.1-23.6,1.7
			C420.1,735.2,421.1,744.5,422.3,756.5z"/>
		<path class="st0" d="M492.6,866.1c16.8,10.5,16.4,13.1,11.3,28.2c0,0,0,0,0,0C509,879.2,509.4,876.5,492.6,866.1z"/>
		<path class="st0" d="M300.5,632.5c1.1-1,2.7-4.3,4-6.1c5.3,2.9,10.6,5.8,16.3,8.9c-5.6-3.1-11-6-16.3-8.9
			C303.2,628.2,301.6,631.5,300.5,632.5z"/>
		<path class="st0" d="M405.2,411.5c6.4-6.9,7.4-17.1,5.5-27.3c0.8-2.6,0.9-6.2,2.3-7.9c-1.4,1.7-1.5,5.4-2.3,7.9
			C412.6,394.4,411.7,404.5,405.2,411.5z"/>
		<path class="st0" d="M360.6,630.8c2.9,5.6,5.9,11.2,8.8,16.8C366.5,642.1,363.6,636.5,360.6,630.8
			C360.6,630.8,360.6,630.8,360.6,630.8z"/>
		<path class="st0" d="M482.1,440c-1.3,3.7-3.1,7.3-4.2,11C479,447.4,480.8,443.7,482.1,440c-5.8-11.7-11.7-23.4-17.9-36
			C470.4,416.6,476.3,428.3,482.1,440z"/>
		<path class="st0" d="M371.9,837c3.9-2.7,8.3-4.7,12.4-7c2.8-7.9,5.6-15.8,8.6-24.4c9.9,2.9,17.2,6.4,24.6,6.8
			c4.5,0.2,11.6-3.3,13.1-7c1.5-3.7-1-11-4.3-14.3c-6-6-13.8-10.3-20.8-15.3c-9.9,15.6-25.4,14.8-42.4,13.2
			c-0.7,4.6-1.4,8.7-2.4,14.8c-15.3-6.7-30.3-5.9-45.2,1.1c-3.2,1.5-9.2,1.7-11.5-0.3c-11.1-9.3-23.5-18.3-31.2-30.2
			c-3.6-5.6-3-13-12.1-14.3c-1.6-0.2-3-4.9-3.6-7.7c-3.6-17.5-7.4-21.6-24.2-22.1c-1.7,0-3.4,0-5.2,0c31.9,54.2,74,107.8,124,140.7
			C349.8,858.4,356.4,848,371.9,837z"/>
		<path class="st0" d="M232.9,677.5c3.3-4.4,6.6-8.8,9.7-12.9c20.8,5,20.8,5,33.8-9.7c-10.1-9.5-19.7-19.5-30.3-28.2
			c-13.4-10.9-28.3-17-46.4-8.2c11.9-11.8,22.3-24.1,39.9-24.6c4-4,8.1-7.9,12-12c11.2-11.9,11.5-16,4.1-29.8
			c-3.6-6.7-6.3-13.9-9.4-20.9l0,0l0,0c-4.1-2-8.1-4.1-12.2-6c-1.4-0.6-2.7-1.3-4.1-1.8c-5.4-2.2-11-3.9-21.1-7.5
			c7.2,25.7,13.2,46.6,19.6,69.5c-7.7,0.7-14.4,1.3-16.9,1.5c-8.1-11-12.7-22.2-20.9-26.8c-6.7-3.7-17.9,0.4-27,1
			c2.3,5.5,2.1,9.9,0.4,13.6c1.2,6.4,2.5,12.7,4.1,19.1c1.6,0.8,3.2,1.9,4.6,3.2c2.1,1.9,4.1,4.5,5.8,7.9c-2,1.6-4,3.2-6,4.9
			c3.4,11.2,7.4,22.5,12.2,34.1c3.7,8.9,7.8,18.1,12.2,27.6C209.8,663.3,215,666.5,232.9,677.5z"/>
		<path class="st0" d="M172.8,597.2c-1.5-1.3-3-2.4-4.6-3.2c1.3,5.3,2.8,10.6,4.4,16c2-1.6,4-3.3,6-4.9
			C176.9,601.7,174.9,599.1,172.8,597.2z"/>
		<path class="st0" d="M170.6,544.5c-2.8,6.6-4.8,11.6-6.9,16.6c9.2-0.6,20.3-4.8,27-1c8.3,4.6,12.8,15.8,20.9,26.8
			c2.5-0.2,9.2-0.8,16.9-1.5c-6.5-23-12.4-43.9-19.6-69.5c10.2,3.6,15.7,5.3,21.1,7.5c1.4,0.6,2.8,1.2,4.1,1.8c4.1,1.9,8.1,4,12.2,6
			v0c0.5-5.9,0.9-11.8,1.4-17.7c-4.5-1.9-8.9-3.8-14.1-6c-1.4-0.6-2.9-1.2-4.5-1.9c6.9-17.4,24.2-31.7,16.4-50.2
			c-13.7-9-25.7-16.9-40.2-26.5c0,0-4.1,1.1-9.2,2.5c0-4.8,0.1-7.9,0.1-11.1c-4.5-6.3-9.2-12.6-13.5-19.1c-0.8-1.2-1.6-2.4-2.4-3.7
			c-8.3,18.7-14.7,40.7-17.9,65.8c5.3-7.4-2.2-22.4,13.3-26.1c10.7,12.6-7.4,32.5,13.5,42.1c2.5-11.7,9.5-18.7,26.3-16.4
			c-12.7,8.6-15.6,18.6-7.9,30.6c-17.1,6.6-36.5,0.8-48.2,16.3c-0.1,0.9-0.3,1.8-0.4,2.6c-0.1,8.5,0.1,16.8,0.6,25
			C161.7,540.3,165.2,542.7,170.6,544.5z M204.6,553.4c0.3-1,1.2-1.9,1.7-2.9v0l0,0c0.8,0.6,2.1,1.2,2.6,1.8
			c0.2,0.2,0.3,0.4,0.3,0.7c0.1,1.2-1.2,2.6-1.9,3.9c-1-0.8-2.9-1.6-2.9-2.5C204.4,554.1,204.4,553.8,204.6,553.4z"/>
		<path class="st0" d="M246.6,339.3c0.5-0.3,2.6-1.1,2.8-2.1c3.7-21.8,7.7-23.6,24.3-10.6c3.1,2.4,6.3,4.9,9.4,7.3
			c0.7-12.7,9.8-13.1,19-12.3c3.8,0.3,7.7,4.1,11.2,3.7c4.2-0.6,9.8-3,11.7-6.4c1.9-3.2,1.5-10.3-0.9-12.9
			c-6.9-7.6-15.3-13.7-23.7-20.9c0-0.1,0.1-0.2,0.1-0.3c-25.1,11.6-49.9,28.3-73.7,50C232.5,338,239,339.5,246.6,339.3z"/>
		<path class="st0" d="M213.7,347.4c-2.7,2.7-5.3,5.6-7.9,8.8c4.7,0,9.4-1.3,14.1-5.3C217.8,349.7,215.7,348.5,213.7,347.4z"/>
		<path class="st0" d="M232.9,730.3c16.9,0.4,20.6,4.5,24.2,22.1c0.6,2.8,2,7.5,3.6,7.7c9.1,1.3,8.4,8.7,12.1,14.3
			c7.7,11.8,20,20.8,31.2,30.2c2.4,2,8.3,1.8,11.5,0.3c14.9-7,29.9-7.8,45.2-1.1c1-6.1,1.7-10.2,2.4-14.8c17,1.5,32.5,2.4,42.4-13.2
			c0.7-2.1,1.4-4.3,2.2-6.4c-6.1-2.2-7.6-5.2-7.3-8.6c0.3-3.6,2.7-7.6,3.6-11.3c-3.6-3.5-7.3-6.9-10.9-10.4
			c-7.2-14.5-15.6-29,0.2-43.4c-1.3-4.8-4.2-9.9-3.5-14.4c0.9-5.8,4.8-11.1,7.6-17c-0.6-0.2-1.1-0.3-1.6-0.5
			c-3.6-1.1-6.2-1.9-8.8-2.7c-0.7-1.4-1.5-2.8-2.2-4.2c-5,6.6-10,13.3-14.5,19.3c-1.5,2-3,4-4.4,5.9c4.6,6.4,7.8,10.7,10.9,15
			c-4.6,2.4-9.9,7.6-13.6,6.6c-14.8-4-21.8,3.2-26.3,17.7c-11.9-14.2-9.5-26.4,0.2-38.6c-4.6-3.5-8.2-6.3-13.4-10.3
			c3.6-4,6.9-7.7,11.3-12.4c6.6,6.2,12.1,11.5,18.3,17.3c5.2-15.2-6.9-22.3-14.2-34.6c12.2,1.9,21.2,3.4,30.1,4.8
			c-2.9-5.6-5.9-11.2-8.8-16.8c-6.4,1-10.4,1.6-13.7,1.5c-3.8-0.1-6.5-1.1-10.8-3.6c-1.2-0.7-2.6-1.5-4.1-2.5
			c-0.8-0.5-1.6-1-2.5-1.5c-1.5,1.4-3.4,2.8-4.8,4.5c-1.5,1.8-2.6,3.9-3.9,6c-5.6-3.1-11-6-16.3-8.9c-1.3,1.8-2.9,5.1-4,6.1
			c-0.2,0.2-0.5,0.4-0.6,0.3c-5.4-1.3-12.5-2.2-15.3-6c-2-2.8-4.3-5.2-6.8-7.3c-10.8-9.1-25.3-12.3-36-21.3
			c-0.8-1.5-1.5-2.9-2.2-4.3c-17.6,0.5-28,12.8-39.9,24.6c18.1-8.8,33.1-2.7,46.4,8.2c10.7,8.7,20.2,18.7,30.3,28.2
			c-13,14.7-13,14.7-33.8,9.7c-3.1,4.2-6.4,8.6-9.7,12.9c-17.9-11-23.1-14.2-36-5.8c8.9,19,19.2,38.8,30.8,58.6
			C229.5,730.3,231.2,730.3,232.9,730.3z"/>
		<polygon class="st0" points="480.5,468.6 480.5,468.6 480.5,468.6 		"/>
		<path class="st0" d="M448.5,559.3c-20.7-11.4,6.9-25.7-4.3-37.9c-5-0.3-10.7,0.2-15.9-1.1c-6.3-1.6-12.1-4-8.4-13.4
			c1.1-2.7-3.4-7.6-6.9-14.5c7.3,0.4,13.8,0.3,20.1,1.1c15.6,2.2,31.1,4.8,46.7,7.2c0.2-10.8,0.5-21.5,0.7-32.3
			c-1.2-4.6-3.5-9.3-3.2-13.8c0.1-1.2,0.3-2.5,0.7-3.7c1-3.7,2.9-7.3,4.2-11c-5.8-11.7-11.7-23.4-17.9-36c-2.1-4.2-4.2-8.4-6.4-12.8
			c1.8-2.5,6.5-6.6,7.7-11.6c1.3-5.6,1.6-13.5-1.4-17.7c-10.1-14.1-21-27.9-38.1-34.3c-2.8,1.5-5.7,2.9-8.5,4.3
			c1.4,6.2,2.5,12.5,4.1,18.6c2.7,10.1,2.1,18.6-7.8,25c-0.3,0.2-0.5,0.4-0.7,0.6c-1.4,1.7-1.5,5.4-2.3,7.9
			c1.8,10.2,0.9,20.4-5.5,27.3c-1.5,1.6-3.3,3-5.4,4.3c-15.4,8.9-18.4,11.6-15.5,26.1c0.5,2.3,2.1,4.4,2.5,6.7
			c0.3,2.2-0.3,4.5-0.6,8c-26,2.9-13.2-28.1-32-33.5c0.6,13.5,1.2,26.3,1.8,40.1c-4.6,2.9-9.6,6.1-14.7,9.3c-2.5,2.2-4.8,5-7.6,6.7
			c-0.4,0.2-0.8,0.5-1.2,0.7c-2.5,1.1-6,0.1-13.3-0.1c3.7-8.8,6.4-15.5,9.2-22.2c-6,1.9-11.9,3.8-20.5,6.5
			c-2.4-8.9-4.7-17.6-7.7-28.6c-9,7.2-12.4,14.8-10.7,24.8c0.7,3.9,2.6,10.5,1.2,11.3c-17.6,10.8-18.2,39.1-43.1,42
			c-0.5,5.9-0.9,11.8-1.4,17.7c3.1,7,5.7,14.2,9.4,20.9c7.4,13.7,7.1,17.9-4.1,29.8c-3.9,4.1-8,8-12,12c0.7,1.4,1.5,2.9,2.2,4.3
			c12.7-4.4,25.4-8.9,39.5-13.8c0.5,2.9,1,6.2,1.5,9.5c7.4,2,14.8,3.9,23.8,6.3c-0.7-9.7-1.4-18.7-2.1-27.8
			c-23.1,4.8-27.9-16.5-45-30.6c16,3.1,26.7,5.1,38.9,7.5c2.6-15.5-5-32.5,13-39.7c10.4-7.5,18.1-24.1,34.3-6.6
			c2-9.5,3.3-15.2,5.6-26c5.9,9,8.3,14.8,12.5,18.3c4.7,3.8,11.1,5.4,17.7,8.4c-4.8,3-9.2,5.7-12.6,7.8c2.7,12.4,5.1,23.5,8,36.7
			c5,0.6,12.5,1.4,21.6,2.4c-3.5,28-2.7,53.7,34.1,64.6c-3.9-7.9-6.8-12.8-8.9-18c-2.3-6-2.5-11.5,6.3-11.9
			c-7.4-14.9-14.9-29.8-21.8-43.6c14.3,0.3,14.7,0.5,19.3,12.8c1.6,4.4,2.5,9.3,5,13.2c7,11.4,10.7,13.6,19.8,8.5
			c3.3-6.4,7.1-12.2,11.4-17.5C458.4,558.1,452.7,560.7,448.5,559.3z"/>
		<path class="st0" d="M423.9,597.2c2,5.2,4.9,10.1,8.9,18c-36.8-10.9-37.5-36.6-34.1-64.6c-9.1-1-16.6-1.9-21.6-2.4
			c-2.9-13.2-5.3-24.2-8-36.7c3.4-2.1,7.8-4.8,12.6-7.8c-6.6-3-13-4.6-17.7-8.4c-4.3-3.5-6.6-9.4-12.5-18.3
			c-2.3,10.9-3.6,16.6-5.6,26c-16.2-17.6-23.9-0.9-34.3,6.6c2.2,5,4.4,10,7.1,16.3c9.5-2.7,18.2-21.3,32-4c-3.6,3.6-7.2,7.3-11.9,12
			c4.1,10.8,7,21.7,22.2,23.6c10.7,1.3,14.7,8.8,10.2,19.6c-1.8,4.4-3.9,8.9-4.8,13.6c-1.8,9.3,1.5,15.4,11.6,17.4
			c6.1,1.2,12.9,2.5,17.8,5.9c8.7,6,12.9,13.9,4.8,24.4c-5.3,6.9-9.1,15-13.5,22.6c2.6,0.8,5.2,1.6,8.8,2.7c0.5,0.2,1,0.3,1.6,0.5
			c-2.8,6-6.7,11.3-7.6,17c-0.7,4.5,2.2,9.5,3.5,14.4c6.2,1,12.4,2.1,21.6,3.6c-4.3-8.5-9-14.4-9.9-20.8c-0.9-6.7,2-14,3-19.6
			c13.5-0.7,14.8,5.9,15,12.4c0.5,14.5,6,26.3,17.4,34.9c7.6,5.7,7.8,11.4,2.1,18.1c-8,0.6-15.8,1.1-23.6,1.7c1,9.3,2,18.7,3.2,30.6
			c0.2,1.7,0.4,3.5,0.6,5.3c-3.3,1.7-9.2,4.6-15.1,7.5c-0.7,2.1-1.4,4.3-2.2,6.4c7.1,5,14.8,9.2,20.8,15.3
			c3.2,3.3,5.8,10.6,4.3,14.3c-1.5,3.7-8.6,7.2-13.1,7c-7.5-0.4-14.8-3.9-24.6-6.8c-3,8.6-5.8,16.5-8.6,24.4
			c4.6,4.1,10.1,7.6,13.5,12.5c9.7,14.1,18.1,27.5,34.9,36.4c9.4,5,17.6,13.8,19.8,25.2c9.1,0.5,17.4,0.5,25.4-0.7
			c0.3-0.6,0.7-1.2,1-1.8c-8.3-0.3-13.5-4.3-16.8-10.7c-0.8-1.5-1.4-3.1-2-4.8c-2.9-8.7-5.9-17.4-9.1-27
			c13.3-7.4,19.4,1.6,23.2,11.2c4.9,12.4,11.7,22,24.3,26.8c1.7-0.8,3.5-1.8,5.2-2.8c5.1-15.1,5.5-17.7-11.3-28.2
			c-3.2-2-7-4.3-11.5-6.9c-0.2-4.9-0.4-10.2-0.6-16.7c-7.6-1.3-14.6-2.4-23.4-3.9c2.3-7.6,4.3-14.1,6.7-22.1
			c-5.3-3.7-10.9-7.7-15.6-11.1c-5.3-14.7,9-29.6,29.6-32.9c0.1,12.4,0.1,12.4-5.9,20.4c8.2,3,16.7,6.9,25.6,8.9
			c3.8,0.9,9.4-1.2,12.3-3.9c1.8-1.7,1.3-7.8-0.3-10.7c-3.3-6.2-8-11.6-13.2-18.8c7.1-4.4,12.7-7.9,18.4-11.3c0.4-2.5,0.8-5,1.2-7.6
			c-4.6,0.2-9.1,0.6-13.7,0.4c-11.8-0.5-27.6-13.2-29.9-24.1c-0.3-1.7,2.2-4,3.4-6.1c2.4-2.3,8.7-4.2,1.1-7.7
			c-8.8-4.1-14.6-9.8-12.1-22.3c2.8-0.3,5.7-0.5,8.7-0.8c-11.8-14.8-21.8-30.4-26.6-49.2c-3.6-0.8-8.2-1.6-14.2-2.6
			c3.8-5.2,7.5-10.4,11.3-15.6c-0.5-8.2-0.1-16.9,1.4-26.4c0,0,0,0,0,0c-5-3.3-10-6.5-15-9.8C421.4,585.7,421.6,591.3,423.9,597.2z"
			/>
		<path class="st0" d="M532.2,851.5c-0.3,6.9-2.4,13.9-5,20.3c-0.9,2.1-1.8,4.2-2.8,6.3c0.3-0.3,0.7-0.7,1-1
			c16.5-18,23.8-33.5,24.6-49.8C534.9,830,532.9,833.6,532.2,851.5z"/>
		<path class="st0" d="M479,901.5c-0.3,0.6-0.7,1.2-1,1.8c6.6-1,13-2.8,19.4-5.8C491.3,898.9,485.2,900.2,479,901.5
			C479,901.5,479,901.5,479,901.5z"/>
		<path class="st0" d="M163.7,561.2c2.1-5,4.1-10,6.9-16.6c-5.4-1.9-8.8-4.2-10.9-7c0.7,12.6,2.2,24.9,4.4,37.2
			C165.7,571.1,166,566.7,163.7,561.2z"/>
		<path class="st0" d="M159.1,509.2c0,1.1,0,2.3,0,3.4c0.2-0.9,0.3-1.8,0.4-2.6C159.4,509.7,159.2,509.4,159.1,509.2z"/>
		<path class="st0" d="M432.8,878.9c-16.8-8.9-25.2-22.4-34.9-36.4c-3.4-4.9-8.9-8.4-13.5-12.5c-4.2,2.3-8.6,4.3-12.4,7
			c-15.6,11.1-22.2,21.4-20.2,34c25.8,16.9,53.7,28.4,83.4,31.5c6.1,0.7,11.9,1.2,17.4,1.5C450.4,892.7,442.2,883.8,432.8,878.9z"/>
		<path class="st0" d="M367.4,286.7l0.3-0.5c0,0,0,0,0,0c0,0,0,0,0,0c1.1-7,2.2-14,3.3-20.9c-13.7,1.3-27.4,4.1-41.2,8.3
			c5.5,4.3,11.1,8.3,17,11.9C352,288.6,360.5,286.4,367.4,286.7z"/>
		<path class="st0" d="M204.7,402.9c-3,6.2-5.7,11.8-8.4,17.4c0,3.2-0.1,6.3-0.1,11.1c5-1.4,9.2-2.5,9.2-2.5
			c14.5,9.6,26.5,17.5,40.2,26.5c7.8,18.5-9.5,32.8-16.4,50.2c1.6,0.7,3,1.3,4.5,1.9c5.2,2.2,9.6,4.1,14.1,6c0,0,0,0,0,0
			c25-2.9,25.5-31.2,43.1-42c1.4-0.8-0.6-7.4-1.2-11.3c-1.7-10.1,1.7-17.6,10.7-24.8c3,11,5.3,19.8,7.7,28.6
			c8.6-2.7,14.5-4.6,20.5-6.5c0,0,0,0,0,0c0,0,0,0,0,0c3.8-1.1,7.6-2.3,14.4-4.3c-5.9-5.3-10.2-9.1-15.5-13.8
			c2.2-4,4.6-8.5,6.9-12.9c-15.6-11.8-30.7-2.3-45.3-1.4c-13.6,0.8-25.1,13.4-46.2,9.6c14.4-10.8,25.4-17.5,34.5-26.2
			c8.8-8.5,5.7-25.9,18.8-29.5c21.6,11.7,41.4,22.5,61.5,33.4c3.7-8.1,6.9-15,11.7-25.5c4.9,9.9,7.6,15.2,11.7,23.5
			c5.4-5.5,10.9-9,13.4-14c3.6-7.2,7.9-12,16.2-12.1c0.8-2.6,0.9-6.2,2.3-7.9c0.2-0.2,0.4-0.5,0.7-0.6c9.9-6.4,10.5-14.9,7.8-25
			c-1.6-6.1-2.8-12.4-4.1-18.6c-6.2,1.6-12.3,3.2-20.5,5.3c-0.9-23.2-29.1-16.3-37.9-34.5c2.7-5.1,5.6-10.6,8.5-16.2
			c-7-0.2-15.4,1.9-20.6-1.2c-5.9-3.6-11.5-7.6-17-11.9c-9.8,3-19.5,6.7-29.2,11.2c0,0.1-0.1,0.2-0.1,0.3
			c8.3,7.2,16.8,13.3,23.7,20.9c2.4,2.6,2.7,9.7,0.9,12.9c-1.9,3.4-7.4,5.9-11.7,6.4c-3.5,0.5-7.4-3.4-11.2-3.7
			c-9.1-0.7-18.3-0.4-19,12.3c10,17.2,9.1,21.7-3.2,32.2c-11.5,9.8-22.4,20.3-33.2,30.9c-13.3,13.2-18.7,12.6-33.3-0.5
			c-7-6.3-16.3-9.9-25.3-14.8c-0.5,1-1.1,2-1.6,3C186.5,395.8,197,397.7,204.7,402.9z"/>
		<path class="st0" d="M246.8,397c10.7-10.6,21.6-21.2,33.2-30.9c12.4-10.5,13.2-14.9,3.2-32.2c-3.1-2.5-6.3-4.9-9.4-7.3
			c-16.7-13-20.6-11.2-24.3,10.6c-0.2,1.1-2.3,1.8-2.8,2.1c-7.6,0.3-14.1-1.2-19.7-4.5c-4.4,4-8.8,8.2-13.1,12.6c0,0,0,0,0,0.1
			c2.1,1.2,4.1,2.3,6.2,3.5c-4.7,4-9.4,5.3-14.1,5.3c-6.2,7.4-12.1,15.9-17.5,25.6c8.9,4.9,18.3,8.6,25.3,14.8
			C228.1,409.6,233.4,410.2,246.8,397z"/>
		<path class="st0" d="M196.3,420.3c2.7-5.6,5.4-11.2,8.4-17.4c-7.7-5.2-18.2-7.1-18-18.2c-2.2,4.1-4.3,8.4-6.3,12.9
			c0.8,1.2,1.6,2.5,2.4,3.7C187.1,407.8,191.8,414,196.3,420.3z"/>
		<path class="st0" d="M207.6,493.6c-7.7-12.1-4.8-22,7.9-30.6c-16.9-2.3-23.9,4.7-26.3,16.4c-20.9-9.6-2.7-29.5-13.5-42.1
			c-15.6,3.7-8.1,18.7-13.3,26.1c-0.2,1.8-0.5,3.6-0.7,5.4c-1.5,14-2.4,27.4-2.7,40.3c0.1,0.3,0.2,0.5,0.4,0.8
			C171.1,494.4,190.5,500.1,207.6,493.6z"/>
		<path class="st0" d="M207.3,556.9c0.7-1.3,2-2.6,1.9-3.9c0-0.2-0.1-0.4-0.3-0.7c-0.6-0.6-1.8-1.2-2.6-1.8l0,0
			c-0.5,1-1.3,2-1.7,2.9c-0.1,0.3-0.2,0.6-0.1,0.9C204.5,555.3,206.3,556.1,207.3,556.9z"/>
		<path class="st0" d="M400.6,638.5c8.1-10.5,3.8-18.4-4.8-24.4c-4.9-3.4-11.7-4.7-17.8-5.9c-10.1-2-13.4-8.1-11.6-17.4
			c0.9-4.7,3-9.1,4.8-13.6c4.5-10.7,0.5-18.2-10.2-19.6c-15.3-1.9-18.2-12.8-22.2-23.6c4.7-4.7,8.3-8.4,11.9-12
			c-13.8-17.4-22.5,1.3-32,4c-2.7-6.3-4.9-11.3-7.1-16.3c-18,7.2-10.4,24.2-13,39.7c-12.2-2.3-22.9-4.4-38.9-7.5
			c17.1,14,21.9,35.3,45,30.6c5.3-3.1,10.3-7.2,16-8.9c2.6-0.8,6.7,3.2,10.1,4.9c-8.1,14.9,16.3,20.3,10.4,34.9
			c-0.5,1.2,3.8,3.9,5.4,6.2c4.9,7,9.5,14.2,14.2,21.3c2.9,5.6,5.9,11.2,8.8,16.8c7.9-1.6,14,0,15.5,9.2c0,0,0,0,0,0
			c0.7,1.4,1.5,2.8,2.2,4.2C391.6,653.5,395.3,645.4,400.6,638.5z"/>
		<path class="st0" d="M346.4,609.5c-1.6-2.3-5.8-5.1-5.4-6.2c5.9-14.6-18.5-20-10.4-34.9c-3.4-1.8-7.4-5.7-10.1-4.9
			c-5.7,1.7-10.7,5.8-16,8.9c0.7,9.1,1.4,18.1,2.1,27.8c-9-2.4-16.4-4.3-23.8-6.3c3.1,13.6,9.5,25,21.6,32.5
			c5.3,2.9,10.6,5.8,16.3,8.9c1.4-2.1,2.4-4.2,3.9-6c1.4-1.7,3.3-3.1,4.8-4.5c0.9,0.5,1.7,1,2.5,1.5c1.5,0.9,2.9,1.8,4.1,2.5
			c4.3,2.4,7.1,3.5,10.8,3.6c3.2,0.1,7.3-0.5,13.7-1.5c0,0,0,0,0,0C355.9,623.7,351.3,616.5,346.4,609.5z"/>
		<path class="st0" d="M369.4,647.7c-8.9-1.4-17.9-2.9-30.1-4.8c7.3,12.3,19.4,19.4,14.2,34.6c-6.2-5.9-11.8-11.1-18.3-17.3
			c-4.3,4.8-7.7,8.5-11.3,12.4c5.2,4,8.8,6.8,13.4,10.3c-9.8,12.2-12.2,24.4-0.2,38.6c4.5-14.5,11.4-21.7,26.3-17.7
			c3.7,1,9-4.3,13.6-6.6c-3.1-4.3-6.3-8.6-10.9-15c1.4-1.9,2.9-3.8,4.4-5.9c4.6-6.1,9.5-12.7,14.5-19.3
			C383.4,647.7,377.4,646.1,369.4,647.7z"/>
		<path class="st0" d="M396,722.6c-2.4-5.1-5-10.1,3.6-13.8c4.1-0.9,7.4-1.4,9.9-1.5c4.5-0.1,6.8,1.2,7.7,4.4
			c0.6,2.3,0.5,5.6-0.2,10c0.7,1.4,1.4,2.8,2.1,4.2c7.8-0.6,15.6-1.1,23.6-1.7c5.7-6.7,5.4-12.4-2.1-18.1
			c-11.4-8.7-17-20.5-17.4-34.9c-0.2-6.5-1.5-13-15-12.4c-1,5.7-3.9,12.9-3,19.6c0.8,6.4,5.6,12.3,9.9,20.8
			c-9.2-1.5-15.4-2.6-21.6-3.6c-15.8,14.4-7.4,28.9-0.2,43.4c1.4-4.3,2.8-8.7,4.3-13C397.1,724.9,396.5,723.7,396,722.6z"/>
		<path class="st0" d="M282.9,593.9c-0.5-3.3-1.1-6.6-1.5-9.5c-14.2,4.9-26.8,9.4-39.5,13.8c10.7,8.9,25.1,12.2,36,21.3
			c2.5,2.1,4.8,4.5,6.8,7.3c2.7,3.8,9.9,4.7,15.3,6c0.2,0,0.4-0.1,0.6-0.3c1.1-1,2.7-4.3,4-6.1C292.4,618.8,285.9,607.5,282.9,593.9
			z"/>
		<path class="st0" d="M407.8,769.4c5.9-2.9,11.8-5.9,15.1-7.5c-0.2-1.8-0.4-3.6-0.6-5.3c-1.3-12-2.3-21.3-3.2-30.6
			c-0.7-1.4-1.4-2.8-2.1-4.2c-5.8-4.3-11.6-8.7-17.4-13c-8.6,3.7-5.9,8.8-3.6,13.8c0.5,1.2,1.1,2.3,1.4,3.5
			c14.9,4.2,10.7,13.8,6.6,23.4c-1,3.7-3.3,7.7-3.6,11.3C400.2,764.1,401.6,767.2,407.8,769.4z"/>
		<path class="st0" d="M397.4,726c-1.4,4.3-2.8,8.7-4.3,13c3.6,3.4,7.3,6.9,10.9,10.4C408.2,739.8,412.4,730.2,397.4,726z"/>
		<path class="st0" d="M554.8,429.7c-0.7,1.3-1.5,2.5-2.4,3.5c-5.8,7.2-13.7,7.6-22.6,5.3c-10.8,7.1-21.6,14.3-32.4,21.4
			c-5.6,2.9-11.3,5.8-16.9,8.7c0,0,0,0,0,0c-0.2,10.8-0.5,21.5-0.7,32.3c8.2,5.6,16.5,11.2,25.9,17.6c2.6-2.4,5.3-4.8,8.2-7.2
			c5.7-4.8,29.5-25.6,39.6-58.4c3.3-10.7,5.3-24.4,5.2-39.4c-4.6,4.3-9.2,8.5-14.2,13.1C548.2,427.6,551.2,428.5,554.8,429.7z"/>
		<path class="st0" d="M550.2,363.3c-2.3-6.5-5-12.8-8.4-18.9c-0.3,4.1-1.1,8.3-2.2,12.7C544.1,358.6,547.5,360.7,550.2,363.3z"/>
		<path class="st0" d="M393.9,307c-2.8-12.5-5.3-23-8.3-36.4c-6.6,5.8-12.2,10.7-17.8,15.6l-0.3,0.5c-2.9,5.5-5.8,11-8.5,16.2
			c8.7,18.2,36.9,11.3,37.9,34.5c8.2-2.1,14.4-3.7,20.5-5.3c2.9-1.4,5.7-2.9,8.5-4.3c12.8-23.5,36.4-18.6,56.8-20.8
			c8.3-0.9,17,2,27.9,3.5c0.6,7.7,2.2,17,1.8,26.2c-0.5,10.9,0.8,19.8,10,27.8c4.2,3.7,7,14,4.9,19c-5.7,13.9-8.4,31.4-29.8,32.6
			c-14.2,0.8-11.7,15-15.4,24c-1.3,3.7-3.2,7.3-4.2,11c-0.3,1.2-0.6,2.5-0.7,3.7c-0.3,4.5,2,9.2,3.2,13.8c0,0,0,0,0,0
			c5.6-2.9,11.3-5.8,16.9-8.7c4-8.4,7.9-16.9,13-27.8c6.7,2.2,13.1,4.3,19.4,6.3c8.9,2.3,16.8,1.9,22.6-5.3c0.8-1,1.6-2.2,2.4-3.5
			c-3.6-1.1-6.6-2-10.4-3.2c4.9-4.6,9.5-8.8,14.2-13.1c-0.1-16-2.6-33.5-8.4-50.2c-2.7-2.6-6.1-4.7-10.6-6.2
			c1.2-4.4,1.9-8.7,2.2-12.7c-5.7-10.5-13.1-20.2-22.5-28.5c-21.5-18.9-44.9-32.6-69.4-41.1c-11.8,10-23.1,19.6-35.1,28.1
			C409.8,306.5,401.4,305.6,393.9,307z"/>
		<path class="st0" d="M432.6,567.8c-2.4-3.9-3.3-8.8-5-13.2c-4.5-12.3-5-12.5-19.3-12.8c6.9,13.8,14.3,28.7,21.8,43.6
			c5,3.3,10,6.5,15,9.8c1.8-6.9,4.3-13.1,7.2-18.8C443.3,581.3,439.6,579.1,432.6,567.8z"/>
		<path class="st0" d="M433.1,493.7c-6.3-0.9-12.8-0.7-20.1-1.1c3.4,6.8,7.9,11.8,6.9,14.5c-3.8,9.4,2,11.8,8.4,13.4
			c5.2,1.3,10.9,0.8,15.9,1.1c11.2,12.1-16.4,26.4,4.3,37.9c4.2,1.3,9.9-1.2,15.3-0.6c4.5-5.6,9.4-10.7,14.6-15.6
			c9.3-7.6,17.8-16.1,27.2-24.7c-9.4-6.4-17.6-12-25.9-17.6C464.2,498.5,448.7,495.9,433.1,493.7z"/>
		<path class="st0" d="M464,362c3,4.2,2.7,12.1,1.4,17.7c-1.2,5-5.9,9.1-7.7,11.6c2.2,4.4,4.3,8.7,6.4,12.8
			c6.2,12.5,12.1,24.2,17.9,36c3.7-9,1.2-23.2,15.4-24c21.4-1.2,24.1-18.6,29.8-32.6c2.1-5-0.7-15.3-4.9-19
			c-9.2-8-10.4-16.9-10-27.8c0.4-9.2-1.2-18.5-1.8-26.2c-10.9-1.5-19.6-4.4-27.9-3.5c-20.5,2.2-44-2.8-56.8,20.8
			C443.1,334.1,454,347.9,464,362z"/>
		<path class="st0" d="M341.3,472.5c5-3.2,10.1-6.4,14.7-9.3c-0.6-13.9-1.2-26.6-1.8-40.1c18.7,5.4,6,36.4,32,33.5
			c0.3-3.4,1-5.8,0.6-8c-0.4-2.3-2-4.4-2.5-6.7c-2.9-14.5,0.1-17.2,15.5-26.1c2.1-1.2,3.9-2.7,5.4-4.3c6.4-6.9,7.4-17.1,5.5-27.3
			c-8.4,0.1-12.6,4.9-16.2,12.1c-2.5,5-8,8.5-13.4,14c-4.1-8.3-6.8-13.6-11.7-23.5c-4.8,10.5-8,17.4-11.7,25.5
			c-20.1-10.9-39.9-21.7-61.5-33.4c-13.1,3.6-10,21-18.8,29.5c-9,8.7-20,15.4-34.5,26.2c21.1,3.8,32.7-8.8,46.2-9.6
			c14.6-0.9,29.7-10.3,45.3,1.4c-2.4,4.4-4.7,8.8-6.9,12.9c5.3,4.7,9.6,8.6,15.5,13.8c-6.8,2-10.6,3.2-14.4,4.3
			C332.8,462.5,337.1,467.5,341.3,472.5z"/>
		<path class="st0" d="M332.5,479.8c0.4-0.2,0.8-0.4,1.2-0.7c2.8-1.7,5-4.5,7.6-6.7c-4.3-5-8.6-10-12.8-15c0,0,0,0,0,0c0,0,0,0,0,0
			c-2.8,6.7-5.6,13.4-9.2,22.2C326.5,479.9,330.1,481,332.5,479.8z"/>
		<path class="st0" d="M475.6,719.7c-1.2,2-3.8,4.4-3.4,6.1c2.3,11,18.1,23.6,29.9,24.1c4.5,0.2,9.1-0.2,13.7-0.4
			c-0.4,2.5-0.8,5-1.2,7.6c-5.6,3.5-11.2,6.9-18.4,11.3c5.2,7.2,9.9,12.6,13.2,18.8c1.6,3,2.1,9.1,0.3,10.7
			c-2.9,2.7-8.5,4.7-12.3,3.9c-8.9-2-17.4-5.9-25.6-8.9c6-8,6-8,5.9-20.4c-20.6,3.2-34.9,18.2-29.6,32.9c4.7,3.3,10.4,7.3,15.6,11.1
			c-2.4,8-4.4,14.5-6.7,22.1c8.9,1.5,15.8,2.7,23.4,3.9c0.2,6.4,0.4,11.8,0.6,16.7c4.5,2.7,8.3,5,11.5,6.9
			c16.8,10.5,16.4,13.1,11.3,28.2c6.7-3.9,13.4-9.1,20.4-16.1c1-2.1,1.9-4.2,2.8-6.3c2.7-6.4,4.8-13.5,5-20.3
			c0.7-17.9,2.8-21.5,17.8-24.2c0.4-7.6-0.6-15.4-2.8-23.6c-0.9,2.3-1.6,5-3,6.8c-3,3.7-7.2,6.6-14.7,13.1
			c1.1-16,5.3-26.3,13.4-33.4c-2.7-7.4-6.2-15.3-10.2-23.9c-8-16.2-18.6-30.1-29.8-43.1C492,723.9,483.2,731.7,475.6,719.7z"/>
		<path class="st0" d="M446.7,639.7c-1.5-5.8-2.5-11.8-2.9-18.2c-3.8,5.2-7.5,10.4-11.3,15.6C438.5,638.1,443,638.9,446.7,639.7z"/>
		<path class="st0" d="M476.7,712c7.6,3.5,1.3,5.4-1.1,7.7c7.6,12.1,16.4,4.2,27.3,3.5c-10-11.7-20.4-22.7-29.7-34.3
			c-3,0.3-5.9,0.5-8.7,0.8C462.1,702.2,467.9,707.9,476.7,712z"/>
		<path class="st0" d="M474.3,870.2c-3.8-9.6-9.9-18.6-23.2-11.2c3.3,9.7,6.3,18.3,9.1,27c0.6,1.7,1.2,3.3,2,4.8
			c3.3,6.4,8.5,10.4,16.8,10.7c0,0,0,0,0,0c6.1-1.3,12.3-2.6,18.4-3.9c0.4-0.2,0.8-0.4,1.2-0.6C486,892.3,479.3,882.6,474.3,870.2z"
			/>
		<path class="st0" d="M367.7,286.2c5.6-4.9,11.2-9.8,17.8-15.6c3.1,13.4,5.5,24,8.3,36.4c7.6-1.3,15.9-0.5,21-4.1
			c12-8.5,23.2-18.2,35.1-28.1c-25.4-8.8-52-12-79-9.5C369.9,272.2,368.8,279.2,367.7,286.2C367.7,286.2,367.7,286.2,367.7,286.2z"
			/>
		<path class="st0" d="M417.2,711.7c-0.8-3.2-3.2-4.5-7.7-4.4c-2.6,0.1-5.8,0.6-9.9,1.5c5.8,4.3,11.6,8.6,17.4,13
			C417.6,717.2,417.8,714,417.2,711.7z"/>
		<path class="st0" d="M510.4,432.1c-5.1,10.8-9,19.3-13,27.8c10.8-7.1,21.6-14.3,32.4-21.4C523.5,436.4,517.1,434.3,510.4,432.1z"
			/>
		<path class="st0" d="M529.5,823.6c7.5-6.6,11.6-9.4,14.7-13.1c1.4-1.7,2.2-4.5,3-6.8c-1.1-4.3-2.6-8.8-4.3-13.5
			C534.8,797.3,530.6,807.6,529.5,823.6z"/>
	</g>
	<g>
		<path class="st0" d="M493.8,157c-0.1,0.2-0.3,0.3-0.4,0.5c0.2-0.1,0.4-0.2,0.6-0.3C493.9,157.1,493.8,157.1,493.8,157z"/>
		<path class="st0" d="M505.2,147c-4.2,2.9-8,6.2-11.4,10c0,0.1,0.1,0.1,0.1,0.2c-0.2,0.1-0.4,0.2-0.6,0.3
			c-5.2,5.9-9.3,13-12.1,21.4c0.3,0.6,0.6,1.2,0.8,1.8c0.7,1.4,1.5,2.9,2.2,4.3c7.2-0.4,14.4-1.6,21.5-1.1
			c14,0.9,28.1,2.5,27.7,22.3c10.1,0.8,24.2-7.5,23.4,12.9c-5,0.6-10.5,1.4-17.8,2.3c5,8.5,8.8,15.1,12.6,21.7
			c5.8,11.7,11.7,23.4,18.6,37.2c2.7,0.2,9.6,0.3,16.3,1.7c0.6,0.1,1,1.2,1.4,2.6c21.7-12.7,40.8-35.6,51-67.1
			c9.7-29.9-4.6-53.9-28-68.5c0.8,4.3,1,8.7,1.7,12.9c1.5,8.8-3.4,13.5-14.8,14.2c-3-11.8-6.1-23.9-9.6-37.6c-1.3-0.4-2.7-0.8-4-1.2
			c-9.9,12.4-18.8,23.6-27.8,34.9C536.5,167.6,516.7,163.3,505.2,147z"/>
		<path class="st0" d="M586.6,282.1c-6.6-1.5-13.6-1.5-16.3-1.7c-6.9-13.8-12.7-25.5-18.6-37.2c-6.9,7.4-13.7,14.9-22.4,24.2
			c-15.1-18.8-30.7-33.4-36.6-55.1c-1.3-4.8-5.3-9.4-9.3-12.7c-6.9-5.8-1.8-9.8,0.9-14.5c-0.7-1.4-1.5-2.9-2.2-4.3
			c-0.5-0.1-0.9-0.2-1.4-0.2c-3.6,11.7-4.5,25.7-2,42.3c0.2,1.5,0.5,2.9,0.8,4.3c0.2,0.5,0.3,1,0.3,1.6
			c3.7,18.1,10.2,32.4,18.7,43.1c11.6,2.3,19.5,8.2,23.3,18.6c20.3,9.4,44.5,7,66.2-5.7C587.7,283.2,587.2,282.2,586.6,282.1z"/>
		<path class="st0" d="M498.6,271.8c6.7,8.4,14.6,14.6,23.3,18.6C518,279.9,510.1,274.1,498.6,271.8z"/>
		<path class="st0" d="M479.8,228.7c-0.1-0.5-0.2-1.1-0.3-1.6C479.6,227.7,479.7,228.2,479.8,228.7z"/>
		<path class="st0" d="M505.2,147c11.5,16.3,31.3,20.6,51.3,25.4c9-11.3,17.9-22.5,27.8-34.9C557.5,130,526.8,132.2,505.2,147z"/>
		<path class="st0" d="M612.8,162c-0.7-4.3-0.9-8.7-1.7-12.9c-6.9-4.3-14.6-7.8-22.7-10.4c3.5,13.7,6.6,25.8,9.6,37.6
			C609.4,175.5,614.2,170.8,612.8,162z"/>
		<path class="st0" d="M483.5,199.5c3.9,3.3,8,8,9.3,12.7c5.9,21.8,21.5,36.3,36.6,55.1c8.7-9.4,15.5-16.8,22.4-24.2
			c-3.8-6.6-7.7-13.2-12.6-21.7c7.4-0.9,12.8-1.7,17.8-2.3c0.8-20.5-13.3-12.1-23.4-12.9c0.4-19.8-13.6-21.4-27.7-22.3
			c-7.1-0.4-14.4,0.7-21.5,1.1C481.7,189.6,476.6,193.7,483.5,199.5z"/>
		<path class="st0" d="M481.3,178.9c-0.2,0.5-0.4,1.1-0.5,1.6c0.5,0.1,0.9,0.2,1.4,0.2C481.9,180.1,481.6,179.5,481.3,178.9z"/>
	</g>
	<g>
		<path class="st0" d="M412.2,142.1c2.5-9.2-1.6-12.9-6.7-15.8c-8.7-0.1-16.3,2-22.9,5.7C389.6,142.3,400.4,142.4,412.2,142.1z"/>
		<path class="st0" d="M391.5,191.5c6.8,2,19.6,5.4,15.2-11.1c-3.6-7.2-7.2-14.5-10.8-21.7c-10.2-1.1-17.5-3.9-20.4-16.1
			c-0.4-1.7-0.7-3.2-1.1-4.6c-17.1,15.6-23,43.7-14.4,65.5c0.7-0.6,1.4-1.2,2-1.9C370.2,192.6,378.4,187.5,391.5,191.5z"/>
		<path class="st0" d="M412.2,142.1c-11.8,0.3-22.6,0.3-29.5-10.2c-3,1.7-5.8,3.7-8.3,6c0.4,1.4,0.7,2.9,1.1,4.6
			c2.8,12.3,10.2,15.1,20.4,16.1c4,0.3,8,1.2,11.9,0.8c18.1-1.8,22.1-8.9,14.7-25.3c-0.9-2-1.8-3.9-2.8-5.9c-0.2,0-0.4-0.1-0.5-0.2
			c-4.8-1.2-9.3-1.8-13.6-1.9C410.6,129.1,414.7,132.9,412.2,142.1z"/>
		<path class="st0" d="M407.8,159.5c-3.9,0.4-8-0.5-11.9-0.8c3.6,7.2,7.2,14.5,10.8,21.7c4.3-16.6,18.5-17.9,33.6-21.5
			c5.5,11.6,10.8,23.3,16.2,34.8c5.1-26.3-6.8-57.2-36.8-65.3c1,2,1.9,3.9,2.8,5.9C429.9,150.6,425.9,157.7,407.8,159.5z"/>
		<path class="st0" d="M406.7,180.4c4.4,16.5-8.4,13.1-15.2,11.1c-13.1-4-21.3,1.1-29.5,10.1c-0.6,0.7-1.3,1.3-2,1.9
			c6.5,16.4,21.2,29.2,45.6,30.4c29.3,2.1,46.5-17.3,50.9-40.3c-5.5-11.5-10.8-23.1-16.2-34.8C425.2,162.5,411,163.8,406.7,180.4z"
			/>
	</g>
	<g>
		<path class="st0" d="M263,244.3c3.9-12.2,6.7-20.8,9.4-29.4c-5.7-8-11.5-16-17.2-24c-4.6,0.8-9.3,1.6-13.9,2.4
			c-0.2-0.6-0.5-1.1-0.8-1.6c-2.7,10.9-2.4,23.2,1,34.8C249.3,228.4,256.6,233.1,263,244.3z"/>
		<path class="st0" d="M285.1,267.4c6.6,1.1,13.2,0.7,19.4-0.8C295.2,261.7,289.4,263.2,285.1,267.4z"/>
		<path class="st0" d="M240.5,191.7c0.3,0.5,0.5,1.1,0.8,1.6c4.7-0.8,9.3-1.6,13.9-2.4c4.5,0.7,9.1,1.3,17.2,2.5
			c-3.4-5.9-4.4-9.7-6.9-11.7c-7.3-6-8.4-11.9-5.6-18.4C250,169.3,243.5,179.7,240.5,191.7z"/>
		<path class="st0" d="M265.6,181.7c2.5,2,3.5,5.8,6.9,11.7c-8.2-1.2-12.7-1.8-17.2-2.5c5.7,8,11.5,16,17.2,24
			c1.5-0.6,2.9-1.3,4.4-1.9c13.2-6.5,6.3-19.8,9.6-31.7c5.1,2.2,9.6,3,12.8,5.6c10.8,8.4,18.9,10.7,28.3,6.1c-1.3-2.1-2.6-4.2-4-6.2
			c-0.2,0.4-0.4,0.8-0.6,1.3c-0.2-1.1-0.5-2.1-0.7-3.1c-6.7-9.3-14.6-17.5-21.8-23.4c-16.8-5.9-30.3-4.4-40.4,1.7
			C257.1,169.8,258.2,175.7,265.6,181.7z"/>
		<path class="st0" d="M276.8,213c-1.5,0.6-2.9,1.3-4.4,1.9c-2.7,8.6-5.5,17.1-9.4,29.4c-6.4-11.2-13.7-15.9-21.5-17.8
			c2.6,8.8,7.1,17.2,13.5,24.2c5.6,2.3,11.4,4.7,17.3,7.2c12.4-14.4,25.5-11.1,39,0.4c1.5,1.3,3,2.6,4.5,3.9
			c10-5.7,17.8-15.3,20.9-28c0.7-2.5,1.1-5,1.2-7.6c-12.7-3.5-25.2-7.1-37.9-10.2C292.5,214.4,284.5,214,276.8,213z"/>
		<path class="st0" d="M272.2,257.8c-5.9-2.5-11.6-4.8-17.3-7.2c1.6,1.8,3.4,3.5,5.3,5.1c7.6,6.5,16.2,10.3,24.9,11.7
			c4.3-4.2,10-5.7,19.4-0.8c3.9-1,7.7-2.5,11.2-4.5c-1.5-1.3-3-2.6-4.5-3.9C297.8,246.7,284.6,243.5,272.2,257.8z"/>
		<path class="st0" d="M299.2,186.8c-3.2-2.5-7.7-3.4-12.8-5.6c-3.4,11.9,3.6,25.3-9.6,31.7c7.8,1,15.7,1.4,23.3,3.2
			c12.7,3.1,25.2,6.7,37.9,10.2c0.5-10.8-3.9-22.6-10.5-33.5C318.1,197.6,310,195.3,299.2,186.8z"/>
		<path class="st0" d="M323.4,186.8c-0.4-0.6-0.8-1.2-1.3-1.8c0.2,0.9,0.4,1.9,0.7,3.1C323,187.6,323.2,187.2,323.4,186.8z"/>
	</g>
	<g>
		<path class="st0" d="M179,299.5c8.6,10.2,18.6,13.3,25.7,8C197.6,312.8,187.6,309.7,179,299.5c-8,3.2-16,6.4-25,10
			C162.9,305.9,171,302.7,179,299.5z"/>
		<path class="st0" d="M144.1,295c0.1-0.1,0.3-0.1,0.4-0.2c10.6-13,17.2-13,32.6-0.1c5.4-0.2,10.7-0.5,18.4-0.8
			c-2.5-6.8-4.2-11.6-6-16.4c18.6-14.2,22.9-23.1,13-42.1C158.8,223.6,132.6,261.3,144.1,295z"/>
		<path class="st0" d="M224.8,282c-0.3,12.9-12.6,8.8-19.1,12.7c0.1,4.3,0.2,8.1,0.3,11.7c-0.4,0.4-0.9,0.8-1.4,1.2
			c-7,5.3-17,2.1-25.7-8c-8,3.2-16,6.4-25,10c-0.6,0.2-1.1,0.5-1.7,0.7c1.6,2.1,3.4,4.2,5.4,6.2c11.8,11.5,25.1,14.9,37.6,12.9
			c5.7-4.6,10.3-8.4,15.9-12.9c1,2,2.1,4,3.2,5.7c20.3-12.4,34-37.4,27.3-57.4C234,267.6,228.4,272.9,224.8,282z"/>
		<path class="st0" d="M144.1,295c0.1,0.2,0.1,0.4,0.2,0.6c0.1-0.3,0.1-0.5,0.2-0.8C144.4,294.9,144.3,295,144.1,295z"/>
		<path class="st0" d="M189.6,277.6c1.7,4.8,3.5,9.6,6,16.4c-7.7,0.4-13.1,0.6-18.4,0.8c0.6,1.6,1.2,3.2,1.8,4.7
			c8.6,10.2,18.6,13.3,25.7,8c0.5-0.4,0.9-0.7,1.4-1.2c-0.1-3.5-0.2-7.3-0.3-11.7c6.5-3.9,18.7,0.2,19.1-12.7
			c-3.1-12.2-6.1-24.4-1-37.5c-7.4-4.3-14.5-7.3-21.2-9.1C212.5,254.4,208.2,263.4,189.6,277.6z"/>
		<path class="st0" d="M179,299.5c-0.6-1.6-1.2-3.1-1.8-4.7c-15.4-12.9-22-12.9-32.6,0.1c-0.1,0.3-0.1,0.5-0.2,0.8
			c1.8,5,4.4,9.9,7.9,14.6c0.6-0.2,1.1-0.5,1.7-0.7C162.9,305.9,171,302.7,179,299.5z"/>
		<path class="st0" d="M224.8,282c3.6-9.1,9.2-14.4,16.9-17.3c-2.4-7.3-7.6-13.9-16-19c-0.6-0.4-1.2-0.7-1.8-1.1
			C218.6,257.6,221.7,269.8,224.8,282z"/>
		<path class="st0" d="M195.3,329.3c6.7-1,13.2-3.6,19.1-7.2c-1.1-1.8-2.2-3.7-3.2-5.7C205.6,320.9,201,324.7,195.3,329.3z"/>
	</g>
	<g>
		<path class="st0" d="M125.4,376.2c7.4-10.8,3.3-19.2-10.4-21.4c-11.3-1.8-10.3-10.3-12.7-17.4c-8.7,2.8-16,7.4-19.5,13.5
			c-0.4,0.6-0.7,1.2-1,1.8c-0.8,2.9-1.7,5.7-2.9,8.3c-1.6,9.3,1.5,19.1,6.9,27.3c0.7-0.5,1.5-1,2.2-1.5c8.2,4.8,14.1,8.2,22,12.8
			c-0.3,1.7-0.6,4.2-1.1,7c5.2,2,10.4,3.1,15.5,3.3C120.8,398.2,117.1,388.2,125.4,376.2z"/>
		<path class="st0" d="M168.7,379.5c-1.1-1.7-2.2-3.5-3.4-5.4c1.3-0.4,2.6-0.7,4-1.1c-0.3-9.2-5-19-15.8-27.8
			c-9.9-11.9-33.4-13.6-51.1-7.9c2.4,7.1,1.4,15.6,12.7,17.4c13.6,2.2,17.8,10.6,10.4,21.4c-8.3,12.1-4.6,22-1,33.7
			C146.2,410.9,165.3,397,168.7,379.5z"/>
		<path class="st0" d="M78.9,360.9c1.2-2.6,2.1-5.3,2.9-8.3C80.3,355.3,79.4,358.1,78.9,360.9z"/>
		<path class="st0" d="M88,386.7c-0.7,0.5-1.4,1-2.2,1.5c5.6,8.4,13.7,15.1,21.8,17.8c0.4,0.2,0.9,0.3,1.3,0.5
			c0.4-2.8,0.8-5.3,1.1-7C102,394.9,96.2,391.5,88,386.7z"/>
		<path class="st0" d="M168.7,379.5c0.4-2.1,0.6-4.3,0.5-6.4c-1.3,0.4-2.7,0.7-4,1.1C166.5,376,167.6,377.8,168.7,379.5z"/>
	</g>
	<g>
		<path class="st0" d="M845.1,648.5C845.1,648.5,845.1,648.5,845.1,648.5c1.7-4.3,3.5-8.7,6.4-16.1
			C848.6,639.8,846.8,644.2,845.1,648.5z"/>
		<path class="st0" d="M646.5,726.5c-0.8,0.4-1.7,0.7-2.5,1.1c0,0,0,0,0,0C644.8,727.2,645.7,726.9,646.5,726.5L646.5,726.5z"/>
		<path class="st0" d="M798.6,520.5c0.3-0.5,0.7-1,1.1-1.3C799.3,519.6,799,520,798.6,520.5z"/>
		<path class="st0" d="M796,527.6c0.9-2.1,1.3-4.7,2.3-6.6C797.4,523,796.9,525.6,796,527.6C796,527.6,796,527.6,796,527.6z"/>
		<path class="st0" d="M664.2,760.5C664.2,760.5,664.2,760.5,664.2,760.5c4.5-4.1,9-8.2,13.5-12.3
			C673.2,752.3,668.7,756.4,664.2,760.5z"/>
		<path class="st0" d="M841.5,707.4c-3.1-7.1-5-11.3-6.9-15.6c0,0,0,0,0,0C836.5,696,838.3,700.3,841.5,707.4z"/>
		<path class="st0" d="M650.2,545L650.2,545c0.9,0.6,1.9,1.3,3,2.2C652.1,546.3,651.1,545.6,650.2,545z"/>
		<path class="st0" d="M869.6,623.3c-0.3,0-0.6,0-0.8,0C869.1,623.3,869.4,623.3,869.6,623.3z"/>
		<path class="st0" d="M911.7,584.4c-0.1,1.9,2.3,5.2,3.3,7.8c0,0,0,0,0,0C914,589.7,911.6,586.3,911.7,584.4z"/>
		<path class="st0" d="M570.8,1001.3c7.3-9,14.3-17.5,21.2-26.1v0C585.1,983.8,578.1,992.3,570.8,1001.3z"/>
		<path class="st0" d="M698.4,863c-10.9,4.6-21.7,9.1-34.5,14.5C676.6,872.2,687.5,867.6,698.4,863c8.7,13,19.1,21.7,34.3,19
			C717.5,884.8,707,876.1,698.4,863z"/>
		<path class="st0" d="M670.1,849.7c6-0.9,11.9-1.7,17.3-2.5C682,848,676.1,848.8,670.1,849.7C670.1,849.7,670.1,849.7,670.1,849.7z
			"/>
		<path class="st0" d="M743.6,568c9.3-3.8,16.5-6.7,23.7-9.6c-0.3,1.9-0.6,3.7-0.9,5.6c0.3-1.9,0.6-3.8,0.9-5.6
			C760.1,561.3,752.9,564.2,743.6,568z"/>
		<path class="st0" d="M956.1,782.6c14.9,5.9,1,13.4,2.4,20.4c-1.3,0.2-2.6,0.3-3.8,0.5c-8.7,1.1-16.6,2.2-24.5,3.2
			c3.7,12.7,12,19.9,25.2,18.2c3.2,15.5-11.6,15-16.9,24.8c9.5-2.4,17-1.9,21.6,2.7c10.1-23.9,17.2-49.2,22.6-77.8
			c-4.9-5.1-9.7-10.2-14.4-15C947.6,768.4,947.6,768.4,956.1,782.6z"/>
		<path class="st0" d="M603.5,1089.5c-4-10.1-6.7-16.7-9.3-23.3c2.7-18.1,2.7-18.1,24.4-10.9c5.7-11.9,11.4-23.8,17.2-35.8
			c-7.2-9.1-14.7-18-28.5-14c-3.3,9.1-3.4,21-19.1,20.7c0.3-4.4,0.6-8.7,0.9-13c0.9-12.9,1.8-25.4,2.7-37.9
			c-7,8.5-13.9,17.1-21.2,26.1c-2.4,3-4.9,6-7.5,9.2c-1.5-9.5-1.8-17.3-4.2-24.2c-4.6-13.4,1.4-17.4,13.4-17.5
			c0.5-0.6,1.4-1.7,1.3-1.8c-6.1-7.4-12.3-14.6-18.4-22c-4.1,16-4.6,17.9-17.4,17.3c-2.5,3.2-4.9,6.2-7.1,9.3
			c-0.1,1.6-0.2,3.1-0.2,4.7c0.3,17.2-4.7,28.4-17.8,33.2c-2.5,14.9,0.7,30.9,10.9,51.1c9.9,17.8,20.4,28.3,32.8,35.2
			C570.4,1088.8,584.2,1081.3,603.5,1089.5z"/>
		<path class="st0" d="M555.4,945c-0.6-0.1-1.2-0.2-1.7-0.3c-2.4,2.3-4.7,4.7-7,7.3c-3.1,3.6-5.9,7-8.6,10.4
			C550.7,962.9,551.3,961,555.4,945z"/>
		<path class="st0" d="M587.4,918.2c-2.8,1.9-5.6,3.8-8.3,5.7c1.7,1.1,3.5,2.5,5.4,4.1C585.5,924.6,586.5,921.3,587.4,918.2z"/>
		<path class="st0" d="M949.9,661.6C949.8,661.6,949.8,661.6,949.9,661.6c4.4,14,8.9,27.9,14.5,45.1c7.5-7.3,14.5-11.9,21.5-13.2
			c-0.8-6-1.9-11.9-3.2-17.4c-1,3-2.1,6.1-3.3,9.3C972.2,669.9,962,664.1,949.9,661.6z"/>
		<path class="st0" d="M927,910.2c-17.1-3.8-20.1-9.5-11-23.9c1.6-2.6,4.7-4.2,7.2-6.3c-5.4-9.9-12-8.1-19.7-2.6
			c-6.8,4.9-14.3,8.9-24.6,9.9c4.7-5.4,9.4-10.8,16.3-18.7c-1.1,0.2-2.2,0.3-3.2,0.5c-7.1,1-11.7,1.7-16.3,2.4
			c-7.4,7.2-14.8,14.4-24.2,23.4c6.9,0.9,11.1,1.4,17.2,2.1c-5.3,24.3-1.1,45.6,22.3,59c0.4-0.3,0.9-0.6,1.3-0.8
			c8-9.2,15.5-18.2,22.4-26.9c4.7-6,9.1-12,13.2-17.9C927.6,910.3,927.4,910.3,927,910.2z"/>
		<path class="st0" d="M938.5,849.7c5.3-9.8,20.1-9.3,16.9-24.8c-13.2,1.7-21.5-5.4-25.2-18.2c7.9-1,15.8-2.1,24.5-3.2
			c1.2-0.2,2.5-0.3,3.8-0.5c-1.3-7.1,12.6-14.5-2.4-20.4c-21.8-2-23.4-3.8-21.8-26.9c-18.2,3.2-20.4-16.8-37.2-22.8
			c8.1-3.6,12.6-5.5,17.5-7.7c6.7-23.4-27-6.9-25.4-25.1c8.2-4.8,16.5-9.5,24.7-14.3c-0.2-1.9-0.4-3.7-0.6-5.6
			c-16.4,8.7-25.9-6.4-36.4-8.4c-11.5,13.1-21.7,24.7-34.1,38.8c-0.5-1.1-1-2.2-1.4-3.2c-3.1-7.1-5-11.3-6.9-15.6
			c-10.3,14.5-11.1,30.7-3.7,45.5c2.5,4.9,5.8,9.7,10.1,14.2c4,4.2,5.3,12.7,4.8,19c-0.8,9.4-4.3,18.6-6.7,27.9
			c0.8,1.3,1.7,2.6,2.5,3.9c14.5,5.5,19.7,15.5,15,30.4c5,13.7,2.2,31.3,19.4,38.9c4.6-0.7,9.2-1.3,16.3-2.4c1-0.1,2.1-0.3,3.2-0.5
			c-6.9,7.9-11.6,13.3-16.3,18.7c10.3-1.1,17.8-5,24.6-9.9c7.7-5.5,14.3-7.4,19.7,2.6c4.4-2.2,8.8-4.3,13.2-6.5
			c5.4-1.6,10.8-3.3,16.2-4.9c2.6-5.3,5.1-10.7,7.4-16.2C955.6,847.8,948,847.4,938.5,849.7z M930,806.7
			c-11.6,11.1-2.3,28.3-10.4,41.5c-17.3-5.6-26.8-14.4-25.7-32.9c0.4-6.3-4-12.8-6.4-19.6c11.5-0.8,21.5-1.5,36.6-2.5
			C924.8,794.8,927.4,800.7,930,806.7c0,0,0.1-0.1,0.1-0.1c0,0-0.1,0.2-0.1,0.2C930.1,806.7,930.1,806.7,930,806.7z"/>
		<path class="st0" d="M949.8,661.6C949.8,661.6,949.8,661.7,949.8,661.6c-5-3-10-6.1-14.9-9.2c-14,9.8-29.3,10.7-48.1,6.3
			c1.8-8.2,3-16.5,5.4-24.4c3.1-10.1,1.3-17.2-9.6-20.4c-0.4,2.2-0.9,3.8-1.7,5.1c-0.3,0.5-0.6,1-1,1.4c-0.2,0.2-0.4,0.4-0.6,0.6
			c-2.5,2.3-6.1,2.4-9.7,2.4c-0.3,0-0.6,0-0.8,0c-2.8,0-5.5,0-7.9,0.9c2.7,13.5,3.3,16-6.9,20.7c-2.4,1.1-5.3,2.2-8.9,3.7
			c0,0,0,0,0,0c0,0,0,0,0,0c-2.3-0.6-4.7-1.1-7.4-1.8c-1,15.1-2.1,30.1-3.1,45c1.9,4.2,3.8,8.5,6.9,15.6c0.5,1,0.9,2.1,1.4,3.2
			c12.4-14.1,22.6-25.7,34.1-38.8c10.5,1.9,20,17.1,36.4,8.4c0.2,1.8,0.4,3.7,0.6,5.6c-8.3,4.8-16.5,9.5-24.7,14.3
			c-1.6,18.2,32,1.8,25.4,25.1c-4.9,2.2-9.4,4.1-17.5,7.7c16.8,6,19,26,37.2,22.8c-1.6,23-0.1,24.9,21.8,26.9
			c-8.6-14.2-8.6-14.2,12.2-23c4.6,4.9,9.5,9.9,14.4,15c0.5-2.9,1.1-5.8,1.6-8.8c4.5-26.7,4.6-51,1.6-72.4c-6.9,1.3-14,6-21.5,13.2
			C958.8,689.4,954.3,675.5,949.8,661.6z"/>
		<path class="st0" d="M936.5,873.5c-4.4,2.2-8.8,4.3-13.2,6.5c-2.4,2.1-5.5,3.7-7.2,6.3c-9.1,14.4-6.1,20.1,11,23.9
			c0.3,0.1,0.6,0.1,0.9,0.2c6.6-9.5,12.4-18.9,17.7-28.4C942.8,879.9,939.8,877.1,936.5,873.5z"/>
		<path class="st0" d="M794.1,1030.4c-2.6,2.6-4.8,5.7-7.8,7.6c-3,1.9-6.9,2.6-10.2,3.7c-0.8,7.4,1.8,11.5,5.6,14.3
			c7.7-5.4,15.3-11,22.7-16.8C801.5,1036.1,798.1,1033.1,794.1,1030.4z"/>
		<path class="st0" d="M559.9,1097.5c6.9,3.4,14.4,5.8,22.7,7.8c0.5-3.2,0.8-6.7,0.7-10.7C575.4,1095.6,567.6,1096.6,559.9,1097.5z"
			/>
		<path class="st0" d="M635.8,618c4-2.6,9.6-4.4,11.8-8.1c9.3-15.5,20.1-28.7,37.5-35.9c3.9-1.6,5.4-9.1,6.3-10.9
			c-4.8-7.8-9.1-12.8-11.1-18.5c-3.6-10.2-3.7-11.7-15.4-12.7c-2,1.5-3.9,3-5.8,4.6c0.2,7,0.4,14,0.6,21c1.1,3.7,2.2,7.5,3.3,11.2
			c-19.4,6.1-27.3,5.9-28.4-3.3c-10,16.1-16.6,33.8-20.1,50.1c2-2,4-4,6-6C625.7,612.2,630.8,615.1,635.8,618z"/>
		<path class="st0" d="M672.3,1066.5c-2.9-1.1-5.6-2.6-12.7-5.8c17-10.9,31.3-20,45-28.8c2.7-23-21.1-22.6-31.9-36.4
			c-11.1,2.2-25.9,9.3-35.2-8.6c-1.2-2.4-8.5-1.7-11.1-2.1c-2.3-6.6-4.2-12.4-6.2-18.1c-3.7,1.1-7.4,2.2-10.9,3.3
			c-0.7,12-1.4,23.8-2.1,35.6c13.8-4,21.2,5,28.5,14c-5.8,12-11.5,23.9-17.2,35.8c-21.7-7.2-21.7-7.2-24.4,10.9
			c5.8,2.3,11.8,4.3,17.5,6.8c13.1,5.7,26.2,11.1,33,25.4c1.8,3.7,6.5,6.1,10.1,8.9c1.1,0.8,2.3,1.6,3.6,2.4
			c13.5-2,27.1-5.5,40.4-10.1C699.1,1083.7,690.7,1073.5,672.3,1066.5z"/>
		<path class="st0" d="M644.8,1098.4c-6.8-14.3-19.9-19.7-33-25.4c-5.7-2.5-11.7-4.6-17.5-6.8c2.6,6.6,5.3,13.2,9.3,23.3
			c-19.3-8.2-33.1-0.7-46.9,6.3c1.1,0.6,2.1,1.2,3.2,1.7c7.7-1,15.5-1.9,23.4-2.9c0.1,4-0.2,7.6-0.7,10.7c6.4,1.5,13.3,2.8,20.8,4.1
			c-0.7-0.7-1.5-1.3-2.2-2c0.9-1,1.8-2,2.8-3.1c2.3,2.1,4.5,4.1,6.8,6.1c15.9,2,31.9,1.6,47.8-0.8c-1.3-0.8-2.6-1.5-3.6-2.4
			C651.3,1104.5,646.5,1102.2,644.8,1098.4z"/>
		<path class="st0" d="M573.8,967c0.1,0.1-0.8,1.2-1.3,1.8c6.5,2.2,13,4.3,19.5,6.5v0c-0.9,12.5-1.8,25.1-2.7,37.9
			c-0.3,4.3-0.6,8.6-0.9,13c15.6,0.3,15.8-11.6,19.1-20.7c0.7-11.8,1.4-23.5,2.1-35.6c3.5-1.1,7.2-2.2,10.9-3.3
			c-1.4-2.9-2.9-5.8-4.3-8.7c-0.2-14,1.9-26.1,15.9-34.6c6.2-3.7,12.8-14,12.1-20.6c-1.2-12.4-14.2-4.1-22.1-7.2c0,0,0-0.1,0-0.1
			c-11.1,7.8-22.9,14.9-34.6,22.7c-0.9,3.1-1.9,6.4-2.9,9.8c-1.9-1.6-3.7-3-5.4-4.1c-8.8,6.2-17.4,13-25.4,20.8
			c0.6,0.1,1.2,0.2,1.7,0.3C561.6,952.3,567.7,959.6,573.8,967z"/>
		<path class="st0" d="M530.7,976.2c0-1.6,0.1-3.1,0.2-4.7c-9.6,13.1-15.9,25.1-18,37.9C526,1004.6,531,993.4,530.7,976.2z"/>
		<path class="st0" d="M572.5,968.8c-12,0.1-18,4.1-13.4,17.5c2.4,7,2.6,14.7,4.2,24.2c2.5-3.1,5-6.2,7.5-9.2
			c7.3-9,14.3-17.5,21.2-26.1C585.5,973.1,579,970.9,572.5,968.8z"/>
		<path class="st0" d="M915,592.2C915,592.2,915,592.2,915,592.2L915,592.2c-2.6,4.8-5.1,9.6-8.2,15.3c7,8,13.5,15,8.1,28.5
			c-3.7,9.4,4.7,17.5,17.4,12.9c2.2-9.9,9-13.6,17.3-8.8c10.4,6,6.2,14.2,0.3,21.5c12.2,2.6,22.3,8.3,29.4,23.7
			c1.3-3.2,2.3-6.3,3.3-9.3c-3.7-15.9-9.1-29.7-15.5-41.2c-9.8-17.5-20.4-33.3-31.8-47.5C928.7,588.9,921.9,590.5,915,592.2
			C915,592.2,915,592.2,915,592.2z"/>
		<path class="st0" d="M857.1,938.2c-0.1-11.1-0.4-21.1-14.8-23.4c-2.5-0.4-5.5-5.6-6-8.9c-2.4-15.5-15-20-26.7-25
			c-2.8-1.2-8.5,0-10.3,2.2c-1.6,2-1,7.7,0.8,10.3c2.5,3.8,7,6.3,10.4,9.2c-5.8,17-5.8,17-30.9,15.5c8.4,15.6,23.9,14.6,40.9,18.9
			c-25.8,10.4-43.9,5.7-58.6-11.9c-8.6-10.3-16.4-21.1-32.9-18.1c4.1-10.4,7.3-18.6,10.5-26.8c-2.4,0.9-4.6,1.5-6.8,1.9
			c-15.2,2.7-25.7-6-34.3-19c-10.9,4.6-21.7,9.1-34.5,14.5c-1.3-4.4,1.2-13.3-4.6-17.1c-9.9,14.2-23,25.1-37.3,35.1c0,0,0,0.1,0,0.1
			c7.9,3,20.9-5.2,22.1,7.2c0.6,6.6-5.9,16.9-12.1,20.6c-14.1,8.5-16.2,20.5-15.9,34.6c3.1-3.6,6.1-7.2,10.1-11.8
			c5.8,5.2,10.6,10.3,16.1,14.3c12,8.8,23.7,17.2,40.7,13.1c13.3-3.2,27.2-2.2,34.8,13.3c0.9,1.8,7.1,1.1,10.9,1.5c0,0,0,0,0,0
			c15-12.6,19.5-13.6,33-3.4c7.9,5.9,14.9,12,26.9,9.1c0.9-4.6,1.9-9.7,3.3-16.9c3.3,2.9,5.1,5.3,7.5,6.7
			c14,8.1,25.3,16.4,31.5,33.5c15.6-13.8,30.3-28.2,43.8-42.6c-2.6-8.4-7.4-16-13.7-23C858.2,948.6,857.2,942.8,857.1,938.2z"/>
		<path class="st0" d="M868.8,897.1c-6.1-0.8-10.3-1.3-17.2-2.1c9.4-9.1,16.8-16.3,24.2-23.4c-17.2-7.6-14.4-25.2-19.4-38.9
			c-6.6-0.5-13.2-1-21.6-1.6c-3-9.7,1.3-19.3,6.6-28.8c-0.8-1.3-1.7-2.6-2.5-3.9c-4.5,1.2-9,2.4-14.1,3.7
			c-5.1-14.5-9.8-27.3,6.7-37.4c-16.2-30.8-25.6-63.6-44.1-92.2c0,0-0.1,0-0.1,0c0,0,0-0.1,0.1-0.1c-5.1,1.9-10.3,3.9-17.5,6.6
			c3.8,5.5,6.7,9.6,10.9,15.7c-7.1,19.8-14.7,41.2-23.4,65.6c5.4,10.3,5.2,15.1-5.6,20.8c-7.7,4-16.6,5.6-25,8.3
			c-1.3,0.8-2.5,1.6-3.7,2.5c17.7,2.9,30.5,14.8,44.5,24.3c9.7,6.5,10.1,12.8,2.1,21.7c-2.1,2.4-5,4.1-7.3,6.3
			c-12.4,12.6-12.7,16.2-3.1,30.9c2.1,3.2,3.8,6.7,5.7,10c-12.2,12.6-16.3-7.6-25.4-4.6c-3.2,8.2-6.4,16.4-10.5,26.8
			c16.5-3,24.3,7.8,32.9,18.1c14.7,17.6,32.8,22.3,58.6,11.9c-17-4.3-32.6-3.3-40.9-18.9c25.1,1.6,25.1,1.6,30.9-15.5
			c-3.4-2.9-7.9-5.4-10.4-9.2c-1.8-2.7-2.4-8.3-0.8-10.3c1.8-2.2,7.5-3.4,10.3-2.2c11.7,5,24.3,9.5,26.7,25c0.5,3.3,3.5,8.5,6,8.9
			c14.4,2.3,14.7,12.3,14.8,23.4c0,4.6,1,10.3,3.9,13.5c6.4,7,11.2,14.6,13.7,23c5.7-6.1,11.3-12.2,16.5-18.2
			c-0.1-0.1-0.1-0.3-0.2-0.4C867.7,942.7,863.5,921.4,868.8,897.1z"/>
		<path class="st0" d="M891.3,956.5c0.4-0.4,0.7-0.8,1.1-1.3c-0.4,0.3-0.9,0.6-1.3,0.8C891.1,956.2,891.2,956.4,891.3,956.5z"/>
		<path class="st0" d="M840.9,751.5c-4.2-4.5-7.6-9.3-10.1-14.2c-7.4-14.8-6.5-31,3.7-45.5c0,0,0,0,0,0c1-14.9,2.1-29.9,3.1-45
			c2.7,0.7,5.1,1.2,7.4,1.8c0,0,0,0,0,0c1.7-4.4,3.5-8.7,6.4-16.1c0.4-1.1,0.9-2.2,1.3-3.4c-0.8,0.4-1.5,0.9-2.3,1.3
			c-11.3,6.1-19.6,7.1-21.9-6.1c-8.7,11.7-17.4,23.5-26.1,35.2c3.4,6.9,6.9,13.8,9.8,19.6c-8.5-2.3-16.7-4.5-24.9-6.7
			c18.4,28.6,27.8,61.4,44.1,92.2c-16.5,10.1-11.8,23-6.7,37.4c5.1-1.3,9.6-2.5,14.1-3.7c2.4-9.3,5.9-18.5,6.7-27.9
			C846.2,764.2,844.9,755.7,840.9,751.5z"/>
		<path class="st0" d="M887.5,795.7c2.3,6.8,6.8,13.3,6.4,19.6c-1.1,18.5,8.4,27.3,25.7,32.9c8.1-13.2-1.2-30.3,10.4-41.5
			c-2.6-5.9-5.3-11.8-6-13.5C909,794.2,899,794.9,887.5,795.7z"/>
		<path class="st0" d="M930.2,806.5c0,0-0.1,0.1-0.1,0.1c0,0,0,0.1,0.1,0.1C930.1,806.8,930.2,806.5,930.2,806.5z"/>
		<path class="st0" d="M841.4,802.2c-5.3,9.5-9.6,19.2-6.6,28.8c8.3,0.6,14.9,1.1,21.6,1.6C861.1,817.7,855.9,807.7,841.4,802.2z"/>
		<path class="st0" d="M945.7,882c2.5-4.4,4.8-8.9,7-13.3c-5.4,1.6-10.8,3.3-16.2,4.9C939.8,877.1,942.8,879.9,945.7,882z"/>
		<path class="st0" d="M799.8,519.2c-0.5,0.3-0.8,0.8-1.1,1.3c-0.1,0.2-0.2,0.4-0.3,0.6c-1,1.9-1.4,4.5-2.3,6.6
			c1.5,2.8,3.1,5.5,4.6,8.3c3.7,1.3,7.5,2.6,13.2,4.5c-6,3.9-11.2,7.3-16.2,10.5c5.3,17.6,17.6,1,26.7,9.1c0.3,2.9-0.4,8.6,1.7,13
			c1.9,4.2,6.7,7.1,9.6,10c2.4,11.5-22.8,15.6-6.8,30.2l0,0c12.8-6.7,20.3,1.8,28.5,8.3c1.2,0.9,2.4,1.8,3.6,2.6
			c2.3-0.9,5.1-0.9,7.9-0.9c0.3,0,0.6,0,0.8,0c3.6,0,7.1-0.1,9.7-2.4c0.2-0.2,0.4-0.4,0.6-0.6c0.4-0.4,0.7-0.9,1-1.4
			c0.8-1.3,1.4-2.9,1.7-5.1c-3.3-7.7-17.9-10.3-10.4-23.7c0.9-1.6-8.5-8.9-15.2-15.6c8.5-2.5,15.6-4.6,23.7-6.9
			c4.2,11.4,7.8,20.9,12.3,33.1c7.7-3,14.9-5.7,22-8.5l0,0.1c0,0,0,0,0,0c-1-2.5-3.4-5.9-3.3-7.8c0-0.3,0.1-0.5,0.2-0.7
			c3.2-5.5,5-10.9,5.7-16.4c-11.2-11.6-23-21.7-35.3-30.2c-3.1,1.8-6.9,3.8-11.5,6.2c2.4-3.6,4.5-6.8,6.4-9.7
			c-24.3-16-50.3-26.3-77.2-30.6c0.1,0.1,0.2,0.2,0.3,0.3C804.7,508.8,807.5,513.8,799.8,519.2z"/>
		<path class="st0" d="M892.2,634.3c-2.4,8-3.7,16.3-5.4,24.4c18.8,4.4,34.1,3.5,48.1-6.3c-0.9-1.2-1.7-2.4-2.6-3.6
			c-12.6,4.6-21.1-3.5-17.4-12.9c5.3-13.5-1.1-20.5-8.1-28.5c3-5.7,5.6-10.5,8.1-15.3c-7.1,2.8-14.2,5.5-22,8.5
			c-4.5-12.2-8.1-21.7-12.3-33.1c-8.1,2.4-15.2,4.4-23.7,6.9c6.7,6.7,16.1,14.1,15.2,15.6c-7.5,13.5,7.1,16,10.4,23.7
			C893.5,617.1,895.2,624.2,892.2,634.3z"/>
		<path class="st0" d="M850.6,630.3c0.8-0.4,1.5-0.8,2.3-1.3c-0.5,1.2-0.9,2.3-1.3,3.4c-2.9,7.4-4.7,11.8-6.4,16.1
			c3.6-1.4,6.5-2.6,8.9-3.7c10.2-4.6,9.7-7.1,6.9-20.7c-1.2-0.8-2.4-1.7-3.6-2.6c-8.2-6.6-15.8-15.1-28.5-8.3l0,0c0,0,0,0,0,0
			c0,0-1.2,2-1.2,2c-0.3,1.8-0.7,3.5-1,5.2c0.6,1.3,1.3,2.5,2,3.7C830.9,637.4,839.2,636.4,850.6,630.3z"/>
		<path class="st0" d="M949.8,661.7C949.8,661.7,949.8,661.6,949.8,661.7C949.8,661.6,949.8,661.6,949.8,661.7
			c6-7.4,10.1-15.6-0.2-21.6c-8.3-4.8-15-1.1-17.3,8.8c0.8,1.2,1.7,2.4,2.6,3.6C939.9,655.5,944.8,658.6,949.8,661.7z"/>
		<path class="st0" d="M799.4,983.8c-2.4-1.4-4.3-3.8-7.5-6.7c-1.4,7.2-2.4,12.3-3.3,16.9c-12,2.9-19-3.2-26.9-9.1
			c-13.6-10.1-18-9.2-33,3.4c0,0,0,0,0,0.1c8.3,5.7,16.7,11.5,26.5,18.2c-3.3,12.2-6,26-18.7,34.9c-11.6-7.5-4-18.2-6.6-27.7
			c-3.5-0.1-7.2-0.3-14.6-0.5c5-9.3,9.2-17.1,13.4-25c0,0,0,0,0,0l0.1-0.1c-3.8-0.4-10,0.3-10.9-1.5c-7.7-15.5-21.5-16.5-34.8-13.3
			c-17.1,4.1-28.7-4.3-40.7-13.1c-5.5-4-10.3-9.1-16.1-14.3c-4,4.7-7,8.2-10.1,11.8c1.4,2.9,2.9,5.8,4.3,8.7
			c1.9,5.7,3.9,11.5,6.2,18.1c2.6,0.4,9.9-0.3,11.1,2.1c9.2,17.9,24,10.8,35.2,8.6c10.8,13.9,34.6,13.4,31.9,36.4
			c-13.7,8.8-28,17.9-45,28.8c7.1,3.3,9.8,4.7,12.7,5.8c18.4,7,26.8,17.1,26.6,33c28.5-9.9,56.5-25.2,82.9-43.5
			c-3.8-2.8-6.4-6.9-5.6-14.3c3.3-1.2,7.1-1.8,10.2-3.7c3-1.9,5.2-5,7.8-7.6c4,2.7,7.4,5.7,10.4,8.9c9-7.1,17.9-14.4,26.4-22
			C824.7,1000.2,813.4,991.9,799.4,983.8z"/>
		<path class="st0" d="M655.4,548.7c1.5,2.9,2.9,5.8,4.4,8.7c-0.2-7-0.4-14-0.6-21c-3.2,2.7-6.1,5.6-8.9,8.6c0.9,0.6,1.9,1.3,3,2.2
			C653.9,547.7,654.6,548.2,655.4,548.7z"/>
		<path class="st0" d="M680.4,544.6c2,5.7,6.3,10.7,11.1,18.5c-0.9,1.7-2.4,9.2-6.3,10.9c-17.4,7.3-28.2,20.4-37.5,35.9
			c-2.2,3.7-7.8,5.5-11.8,8.1c-3.3,6.4-1.7,10.9,5.3,12.9c10.8,3.2,22.4,7.7,31.9-1.3c12.1-11.5,26-23.2,15.3-43.3
			c20.2,0.4,29.9,7.2,33.9,22.7c3.7,14.7,8.6,17.5,25.7,15.2c12.1-1.7,16.7-7.9,15.7-21.9c-0.2-2.4-0.2-5.1-1.4-7
			c-7-11.7-2-21.5,4.2-31.3c0.3-1.9,0.6-3.8,0.9-5.6c-7.2,2.9-14.4,5.9-23.7,9.6c-1.3,0.5-2.7,1.1-4.1,1.7
			c0-20.7-16.9-37.1,2.1-53.3c0,0,0.1-0.2,0.1-0.2c-3.8-3.4-7.1-7.5-11.4-9.9c-0.6-0.3-1.2-0.6-1.8-0.9c-15.8,3.5-31.5,9-47.2,16.4
			c-5.9,2.9-11.3,6.2-16.4,10C676.6,532.9,676.7,534.3,680.4,544.6z"/>
		<path class="st0" d="M741.7,516.2c3.9-3.9,7.7-7.7,13.8-13.8c0.4,7.4,0.6,11.7,0.8,17.4c17.3,0.9,30.4-8.5,44-16.5
			c-0.1-0.1-0.2-0.2-0.3-0.3c-23.4-3.8-47.4-3-71.5,2.4c0.6,0.3,1.2,0.6,1.8,0.9C734.6,508.7,738,512.8,741.7,516.2z"/>
		<polygon class="st0" points="646.5,726.5 646.5,726.5 646.5,726.5 		"/>
		<path class="st0" d="M711.5,748c8.2-6.6,16.5-13.2,25.3-20.3c2.6,2,7.2,5.7,13.9,11c3-8,4.7-14,7.5-19.4c3-5.7,7-10.9,10.5-16.3
			c-2.1-0.8-4.2-1.6-6.2-2.4c-3.5-1.4-7-2.9-10.5-4.3c3.6,1.1,7.2,2.1,10.8,3.1c-0.3-9.9-2.6-20.2-0.3-29.5
			c2.1-8.6,9.1-15.9,15.3-26c5.8,4.5,11.8,9.2,17.9,13.9c2.3,0.5,4.6,1.1,6.8,1.6c8.7-11.7,17.4-23.5,26.1-35.2
			c-0.7-1.2-1.3-2.5-2-3.7c-13.2,3.6-19.8-7-28.5-13.2c-6.6-2.6-13.8-4.3-19.6-8.2c-3.1-2.1-3.5-8-7.2-17.1c8.3,3.7,10.9,4.9,13.5,6
			c10.8,4.6,15,2.3,12.7-8.1c-1.5-6.9-5.4-13.3-8.3-19.9c-0.5,0.5-1.2,1-1.5,1.6c-0.3,0.7-0.2,1.5-0.4,2.3
			c-7,10.2-14.1,3.6-21.1,0.1c-6.2,9.8-11.2,19.6-4.2,31.3c1.2,1.9,1.2,4.6,1.4,7c1,13.9-3.6,20.2-15.7,21.9
			c-17.1,2.3-22-0.5-25.7-15.2c-4-15.5-13.7-22.3-33.9-22.7c10.6,20.1-3.2,31.8-15.3,43.3c-9.5,9-21.1,4.5-31.9,1.3
			c-7-2-8.5-6.6-5.3-12.9c-5.1-2.9-10.1-5.7-15.2-8.6c4,10.3,0.4,12.9-7.1,11.6c-1.4,7.9-2,15.3-2,22c3.4-0.5,7-1.1,11.1-1.7
			c1.8,0.2-1.7,10.9,9.3,9.2c20-3.2,24.7,6.1,16.1,29.2c-5.8-3.9-11.3-7.5-19.1-12.7c-1.9,10-3.5,18.7-5.1,27
			c2.2,4.6,4.3,8.5,6.1,11.5c0.9,0.3,1.8,0.5,2.7,0.8c0.6,0.2,1.2,0.3,1.7,0.5c14.1,4.3,13.8,6.7,12.2,19.8c4-4.2,7.5-9,11.9-12.6
			c0.6-0.5,1.3-1,1.9-1.5c4-2.8,9.6-3.3,14.4-4.8c0.5,4.9,2.7,10.3,1.2,14.4c-4.1,11.7-9.1,23.1-14,34.5c0.7,1.3,1.5,2.6,2.2,4
			c4.5-4.1,9-8.2,13.5-12.3C688.9,737.9,700.2,736.8,711.5,748z"/>
		<path class="st0" d="M687.5,847.2c4.1,5.9,7.5,10.9,10.9,15.8c8.7,13,19.1,21.7,34.3,19c2.2-0.4,4.4-1,6.8-1.9
			c9.1-3,13.2,17.2,25.4,4.6c-1.9-3.3-3.6-6.8-5.7-10c-9.6-14.7-9.3-18.3,3.1-30.9c2.3-2.3,5.1-4,7.3-6.3c8.1-8.9,7.6-15.2-2.1-21.7
			c-14.1-9.5-26.9-21.3-44.5-24.3c-6.6,5.7-13.2,11.3-21.2,18.3c-7.5-1.9-16.1-3.6-24.6-6c0.1,2.2,0.2,4.5,0.2,6.8
			c-0.3,2.8-0.7,5.5-1.2,8.1c1.1,1,2.1,1.9,2.7,3c0.6,0.9-0.4,4-0.7,4c-1.2,0-2.3-0.1-3.5-0.3c-1.6,6.9-3.8,13.1-6.4,18.9
			c0.6,1.7,1.2,3.5,1.8,5.2C676.1,848.8,682,848,687.5,847.2z"/>
		<path class="st0" d="M670.1,849.7c-0.6-1.7-1.2-3.4-1.8-5.2c-1.3,2.9-2.8,5.7-4.3,8.4C666,851.8,668.1,850.8,670.1,849.7
			C670.1,849.7,670.1,849.7,670.1,849.7z"/>
		<path class="st0" d="M647.9,679.6c8.6-23.2,3.9-32.4-16.1-29.2c-10.9,1.8-7.4-9-9.3-9.2c-4,0.6-7.7,1.2-11.1,1.7
			c0,0.5,0,1.1,0,1.6c0.5,20,6.5,37.2,12.3,49.4c1.6-8.3,3.2-17,5.1-27C636.6,672.1,642.1,675.8,647.9,679.6z"/>
		<path class="st0" d="M646.5,726.5c1.6-13,1.9-15.5-12.2-19.8c-0.5-0.2-1.1-0.3-1.7-0.5c-0.8-0.2-1.7-0.5-2.7-0.8
			c1.7,2.8,3,4.8,3.9,6c3.7,5.4,7,10.8,10.2,16C644.8,727.2,645.7,726.9,646.5,726.5C646.5,726.5,646.5,726.5,646.5,726.5z"/>
		<path class="st0" d="M723,791.6c1.2-0.8,2.5-1.6,3.7-2.5c-23.4-2.8-43.7-12.3-61.6-27.1c6.5,12.5,11.1,26,12,41.9
			c8.5,2.4,17.1,4.1,24.6,6C709.8,803,716.4,797.3,723,791.6z"/>
		<path class="st0" d="M674.8,707.5c-4.9,1.5-10.5,2-14.4,4.8c-0.7,0.5-1.3,1-1.9,1.5c-4.4,3.7-7.9,8.4-11.9,12.6c0,0,0,0,0,0
			c-0.8,0.4-1.7,0.7-2.5,1.1c5.1,8.4,9.8,16.6,15.3,24.3c0.9,1.6,1.8,3.1,2.7,4.7c4.9-11.4,9.9-22.8,14-34.5
			C677.5,717.8,675.3,712.4,674.8,707.5z"/>
		<path class="st0" d="M663.1,568.6c-1.1-3.7-2.2-7.5-3.3-11.2c-1.5-2.9-2.9-5.8-4.4-8.7c-3.5,8.7-8.4,11.6-14.8,7.9
			c-2.1,2.8-4,5.7-5.9,8.7C635.8,574.5,643.7,574.7,663.1,568.6z"/>
		<path class="st0" d="M620.6,609.4c-2,2-4,4-6,6c-0.4,1.9-0.8,3.7-1.1,5.6C621.1,622.3,624.6,619.6,620.6,609.4z"/>
		<path class="st0" d="M601.1,1107.4c0.7,0.7,1.5,1.3,2.2,2c0.1,0,0.3,0,0.4,0.1c2.3,0.4,4.6,0.7,6.9,1c-2.3-2-4.5-4.1-6.8-6.1
			C603,1105.4,602.1,1106.4,601.1,1107.4z"/>
		<path class="st0" d="M911.7,584.4c-0.1,1.9,2.3,5.3,3.3,7.8c6.9-1.7,13.7-3.4,20.2-5c-5.7-7.1-11.6-13.7-17.7-20
			c-0.7,5.5-2.4,11-5.7,16.4C911.8,583.9,911.7,584.2,911.7,584.4z"/>
		<path class="st0" d="M663.9,877.5c12.8-5.4,23.6-9.9,34.5-14.5c-3.4-4.9-6.8-9.9-10.9-15.8c-5.4,0.8-11.4,1.6-17.3,2.5
			c-2,1.1-4.1,2.2-6.1,3.2c-1.5,2.6-3.1,5.1-4.8,7.5C665.1,864.2,662.5,873.2,663.9,877.5z"/>
		<path class="st0" d="M751.7,780.9c10.8-5.6,11-10.5,5.6-20.8c8.7-24.4,16.3-45.8,23.4-65.6c-4.2-6-7.1-10.1-10.9-15.7
			c7.3-2.7,12.4-4.7,17.5-6.6c2.8-4.8,5.6-9.6,8.4-14.4c-6.1-4.7-12.1-9.4-17.9-13.9c-6.2,10.1-13.2,17.4-15.3,26
			c-2.3,9.3,0,19.6,0.3,29.5c-3.6-1.1-7.2-2.1-10.8-3.1c3.5,1.4,7,2.9,10.5,4.3c2.1,0.8,4.2,1.6,6.2,2.4
			c-3.6,5.4-7.6,10.6-10.5,16.3c-2.8,5.4-4.5,11.4-7.5,19.4c-6.7-5.3-11.4-8.9-13.9-11c-8.8,7.1-17.1,13.7-25.3,20.3
			c-11.3-11.2-22.5-10.1-33.8,0.2c-4.5,4.1-9,8.2-13.5,12.3c0.3,0.5,0.6,1.1,0.9,1.6c18,14.8,38.3,24.3,61.6,27.1
			C735.1,786.5,744,784.9,751.7,780.9z M707.8,767c-2.1-1.1-4.3-2.2-6.4-3.3c3.4-5.2,6.8-10.5,10.2-15.7c0,0,0,0-0.1-0.1l0.1,0
			c0,0,0,0,0,0C719.3,758,716.4,763.7,707.8,767z"/>
		<path class="st0" d="M802.6,659.4c-2.3-0.5-4.6-1.1-6.8-1.6c-2.8,4.8-5.6,9.6-8.4,14.4c0,0,0,0.1-0.1,0.1c0,0,0.1,0,0.1,0
			c8.2,2.2,16.4,4.4,24.9,6.7C809.5,673.3,806,666.4,802.6,659.4z"/>
		<path class="st0" d="M827.6,615.3c0,0,1.2-2,1.2-2c0,0,0,0,0,0c-16-14.5,9.2-18.7,6.8-30.2c-2.9-2.9-7.6-5.8-9.6-10
			c-2-4.5-1.4-10.1-1.7-13c-9.1-8.1-21.4,8.5-26.7-9.1c5-3.2,10.1-6.6,16.2-10.5c-5.7-1.9-9.4-3.2-13.2-4.5
			c-6-1.1-14.4,2.3-15.3-8.3c-3.6-0.1-7.2-0.2-10.9-0.4c2.6,4.5,5.5,8.9,7.5,13.6c0.5,1.3-2,3.8-3.1,5.7c2.9,5.7,5.8,11.5,8.7,17.2
			c0.1-0.8,0-1.6,0.4-2.3c0.3-0.6,1-1.1,1.5-1.6c2.8,6.6,6.8,13,8.3,19.9c2.3,10.4-1.9,12.8-12.7,8.1c-2.6-1.1-5.2-2.3-13.5-6
			c3.6,9.2,4.1,15.1,7.2,17.1c5.7,3.9,13,5.6,19.6,8.2c5,0.5,10.1,0.3,14.8,1.6C818.1,610.3,822.8,613.1,827.6,615.3z"/>
		<path class="st0" d="M774.5,527.3c3.6,0.1,7.2,0.2,10.9,0.4c3.6,0,7.2,0,10.7,0c0.9-2,1.3-4.7,2.3-6.6c0.1-0.2,0.2-0.4,0.3-0.6
			c0.3-0.5,0.7-1,1.1-1.3c7.7-5.4,4.9-10.5,0.6-15.9c-13.5,8-26.6,17.4-44,16.5c-0.3-5.7-0.5-10-0.8-17.4
			c-6.1,6.1-9.9,9.9-13.8,13.8c0,0-0.1,0.2-0.1,0.2c4.1,8,7.7,16.3,12.4,24c3.8,6.3,8.8,12,13.3,17.9c-0.3,1.9-0.6,3.8-0.9,5.6
			c7,3.5,14.1,10.1,21.1-0.1c-2.9-5.7-5.8-11.5-8.7-17.2C772,541.4,769.3,535.3,774.5,527.3z"/>
		<path class="st0" d="M882.3,537.1c-1.7-1.2-3.4-2.3-5.1-3.4c-1.9,2.9-4,6.1-6.4,9.7C875.4,540.9,879.2,538.9,882.3,537.1z"/>
		<path class="st0" d="M785.3,527.7c0.9,10.6,9.3,7.1,15.3,8.3c-1.5-2.8-3.1-5.5-4.6-8.3c0,0,0,0,0,0
			C792.5,527.7,788.9,527.7,785.3,527.7z"/>
		<path class="st0" d="M813,608.9c-4.7-1.3-9.9-1.1-14.8-1.6c8.7,6.2,15.3,16.8,28.5,13.2c0.3-1.7,0.6-3.5,1-5.2
			C822.8,613.1,818.1,610.3,813,608.9z"/>
		<path class="st0" d="M729.8,1013.9c2.6,9.4-5,20.2,6.6,27.7c12.7-9,15.4-22.8,18.7-34.9c-9.8-6.7-18.2-12.5-26.5-18.2
			c-4.2,7.9-8.4,15.7-13.4,25C722.7,1013.7,726.3,1013.8,729.8,1013.9z"/>
		<path class="st0" d="M728.6,988.4C728.6,988.4,728.6,988.4,728.6,988.4C728.7,988.4,728.7,988.3,728.6,988.4L728.6,988.4
			C728.6,988.4,728.6,988.4,728.6,988.4z"/>
		<path class="st0" d="M754,540.4c-4.6-7.7-8.3-16-12.4-24c-19,16.2-2.1,32.6-2.1,53.3c1.4-0.6,2.8-1.1,4.1-1.7
			c9.3-3.8,16.5-6.7,23.7-9.6C762.9,552.4,757.9,546.8,754,540.4z"/>
		<path class="st0" d="M655.4,548.7c-0.8-0.6-1.5-1.1-2.1-1.6c-1.1-0.8-2.1-1.5-3-2.2c-3.5,3.7-6.7,7.6-9.6,11.6
			C647,560.3,651.8,557.5,655.4,548.7z"/>
		<path class="st0" d="M678.8,822c-0.7-1.1-1.6-2-2.7-3c-0.4,2.3-0.9,4.5-1.4,6.7c1.2,0.2,2.3,0.4,3.5,0.3
			C678.4,826,679.4,822.9,678.8,822z"/>
		<path class="st0" d="M701.3,763.7c2.1,1.1,4.3,2.2,6.4,3.3c8.6-3.3,11.5-9,3.8-19C708.1,753.3,704.7,758.5,701.3,763.7z"/>
		<path class="st0" d="M711.5,748C711.5,748,711.5,748,711.5,748C711.5,748.1,711.5,748,711.5,748L711.5,748z"/>
		<path class="st0" d="M778.9,546.7c1.1-1.9,3.6-4.5,3.1-5.7c-2-4.8-4.9-9.1-7.5-13.6C769.3,535.3,772,541.4,778.9,546.7z"/>
	</g>
	<g>
		<path class="st0" d="M652.3,397.2c-3.1,0.1-6.3,0.1-9.4,0.1C646,397.3,649.1,397.3,652.3,397.2z"/>
		<path class="st0" d="M641.7,335.5c2.5,4.2,4.3,8.6,5.5,13.4c0.3,1.1,0.5,2.3,0.7,3.4c-3.5,12.5-5.8,22.3-9,31.6
			c-1.2,3.3-4.8,5.9-7.2,8.8c0.6,1.5,1.3,3,1.9,4.5c3.1,0,6.2,0,9.4,0c3.1,0,6.3,0,9.4-0.1c12.7-0.4,18-5.5,20.6-19.5
			c-5.7-0.3-11.5-0.6-18.7-1c4.7-16.7,16.7-13.3,29.4-19.7c-5.2,10-7.9,15.3-10.7,20.6c3.1,0.3,6.3,0.6,9.5,0.8
			c2.2,0.2,4.5,0.2,8.5,0.5c-0.1,6.5-0.2,12.5-0.4,19.3c27.7-2.4,25.5,15.3,18.7,37c8.9-4.4,14.4-7.2,20-10
			c1.1-10.4-0.6-22.7,15.3-23.4c2,0.6,4.1,1.2,6.1,1.8c-3-11.3-6-22.6-9.7-36.7c1.3,0.4,2.5,0.8,3.7,1.2
			C724,338,677.8,326.6,641.7,335.5z"/>
		<path class="st0" d="M661.7,449.1c3.2-1.6,5.7-4.7,7.9-6.6c-12.9-6-25-11.6-38-17.7c2.4-2.3,5.8-5.6,8.9-8.6
			c-2.3-6.2-4.6-12.6-6.9-19c-0.6-1.5-1.3-3-1.9-4.5c-4-5.7-8-11.4-12.7-18c4.3-3.7,8.7-7.4,14.3-12.2c-3.8-1.9-5.6-3.6-7.6-3.7
			c-6.9-0.3-13-2.4-17.3-5.8c-10.3,10.1-16.5,24-15.8,41.7c1.2,29.9,11.3,55.1,26.2,73c1.9-0.8,3.7-1.5,5.4-2.4
			c1.5,3.9,2.4,7.6,2.8,11.1c3.8,3.6,7.9,6.8,12.1,9.5C637.6,470.5,644.2,457.8,661.7,449.1z M610.3,422.7
			c-3.7-2.3-7.4-4.7-11.1-7.1c0.6-1.3,1.3-2.5,1.9-3.8c4.1,1.7,8.1,3.4,12.2,5C612.3,418.8,611.3,420.8,610.3,422.7z"/>
		<path class="st0" d="M726.2,436.8c2.3-2.7,2-7.6,2.9-11.5c-5.5,2.8-11.1,5.5-20,10c6.8-21.7,9-39.4-18.7-37
			c0.1-6.8,0.2-12.8,0.4-19.3c-4-0.2-6.3-0.3-8.5-0.5c-3.2-0.2-6.3-0.6-9.5-0.8l0,0.1c-2.6,14-7.9,19.1-20.6,19.5
			c-3.1,0.1-6.3,0.1-9.4,0.1c-3.1,0-6.2,0-9.4,0c2.3,6.4,4.7,12.8,6.9,19c-3.1,3-6.6,6.3-8.9,8.6c13.1,6.1,25.1,11.7,38,17.7
			c-2.2,1.9-4.7,5-7.9,6.6c-17.5,8.7-24,21.4-22.6,37c23.7,15.2,52.5,16.1,76.7-2.9c2.2-4,5.7-7.3,10.6-10c0.5-0.5,0.9-1.1,1.4-1.6
			c-6.5-6.2-11.9-11.5-19.3-18.6C715.2,447.1,721.4,442.5,726.2,436.8z"/>
		<path class="st0" d="M750.5,403.8c1.4,2.8,2.7,5.6,4.1,8.4c2-17.4-2.1-32.1-10.1-43.9c-1.2-0.4-2.4-0.8-3.7-1.2
			C744.5,381.2,747.5,392.5,750.5,403.8z"/>
		<path class="st0" d="M715.8,483.1c3.6-2.9,7.2-6.2,10.6-10C721.5,475.8,718,479.1,715.8,483.1z"/>
		<path class="st0" d="M742.4,417.9c-1.7-4.4,1.2-10.6,2-15.9c-15.9,0.7-14.2,13-15.3,23.4c-0.9,3.9-0.6,8.8-2.9,11.5
			c-4.8,5.7-11,10.2-17.7,16.2c7.3,7.1,12.8,12.3,19.3,18.6c6.5-7.6,12.5-17,17.7-28.3c2.2-4.8,3.9-9.4,5.3-13.9
			C746.7,428.1,744.3,422.6,742.4,417.9z"/>
		<path class="st0" d="M633.2,362.6c-5.6,4.8-10,8.5-14.3,12.2c4.6,6.6,8.6,12.3,12.7,18c2.5-2.9,6.1-5.4,7.2-8.8
			c3.3-9.4,5.5-19.1,9-31.6c-0.2-1.2-0.4-2.3-0.7-3.4c-1.1-4.8-3-9.2-5.5-13.4c-12.9,3.2-24.6,9.1-33.3,17.6
			c4.2,3.4,10.4,5.5,17.3,5.8C627.6,359,629.5,360.7,633.2,362.6z"/>
		<path class="st0" d="M683.5,357c-12.7,6.4-24.7,3-29.4,19.7c7.2,0.4,13,0.7,18.7,1l0-0.1C675.6,372.4,678.3,367.1,683.5,357z"/>
		<path class="st0" d="M744.4,402c-0.8,5.4-3.7,11.6-2,15.9c1.8,4.6,4.2,10.2,8.4,11.4c1.9-6,3.1-11.7,3.7-17.2
			c-1.4-2.8-2.7-5.6-4.1-8.4C748.5,403.2,746.4,402.6,744.4,402z"/>
		<path class="st0" d="M618.8,467.9c2.6,3.1,5.3,6,8.2,8.7c-0.4-3.5-1.3-7.1-2.8-11.1C622.6,466.3,620.7,467.1,618.8,467.9z"/>
		<path class="st0" d="M599.1,415.7c3.7,2.4,7.4,4.7,11.1,7.1c1-1.9,2-3.9,3-5.8c-4.1-1.7-8.1-3.4-12.2-5
			C600.4,413.1,599.8,414.4,599.1,415.7z"/>
	</g>
	<g>
		<path class="st0" d="M831.7,370.6c-4.7,1.2-9.3-0.1-13.7-1.5c-7.7,1.5-14.6,4.7-20.4,9.1c10.7,8.4,21.7,17,33.9,26.6
			c3.2-5.7,5.3-9.3,8.2-14.4c4.7,4.1,8.8,7.7,12.9,11.3l0,0c-1.6-7.5-2.8-15.2-4.9-22.6c-0.9-3.1-1.1-5.5-0.1-7.2
			c-4.8-1.9-10.1-3.1-16.1-3.5C831.5,369.1,831.6,369.9,831.7,370.6z"/>
		<path class="st0" d="M867.9,396.8c-5.2,1.4-10.2,3.2-15.3,4.9l0,0c-3.2,12.9-5.5,26.1-9.8,38.6c-5.1,15-15.9,24.9-27.6,33.9
			c5.5,1.1,10.7,1.4,15.6,1.1c0.2-2.7,1.5-5,4.1-7.2c2.4,0.5,4.7,0.9,7.1,1.4c-0.2,1.3-0.4,2.7-0.7,4c31.7-9.3,43.4-49.8,30.8-77.8
			c-0.1,0-0.3,0.1-0.4,0.1C870.4,396.1,869.2,396.5,867.9,396.8z"/>
		<path class="st0" d="M842.8,440.2c4.3-12.5,6.6-25.7,9.8-38.6c-4.1-3.6-8.1-7.1-12.9-11.3c-2.9,5.1-5,8.8-8.2,14.4
			c-12.2-9.6-23.2-18.2-33.9-26.6c-25.5,19.4-31.7,62-8.4,83.7c7.7-6.3,14.3-11.7,22-17.9c3.7,3.9,7.1,7.4,11.8,12.2
			c-7.9,5.2-14.4,10.2-21.2,14c3.4,1.5,7.2,2.7,11.3,3.6c0.7,0.2,1.4,0.3,2.1,0.4C826.9,465.1,837.7,455.2,842.8,440.2z
			 M806.1,426.3c-12.8,12.9-12.8,12.9-25.2,3.7c12.6-17.1,21.1-20.7,37.6-16.4c10.8,2.9,10.8,2.9,14.4,23.4
			C821.5,432.4,813.7,429.3,806.1,426.3z"/>
		<path class="st0" d="M831.7,370.6c-0.1-0.7-0.2-1.5-0.3-2.2c-1-0.1-1.9-0.1-2.9-0.1c-3.7-0.1-7.2,0.2-10.5,0.9
			C822.4,370.5,827,371.8,831.7,370.6z"/>
		<path class="st0" d="M847.7,379.1c2.1,7.4,3.3,15.1,4.9,22.6c5.1-1.6,10.2-3.5,15.3-4.9c1.3-0.3,2.5-0.7,3.8-1
			c0.1,0,0.3-0.1,0.4-0.1c-4.7-10.5-12.8-19.2-24.5-23.8C846.6,373.6,846.8,376,847.7,379.1z"/>
		<path class="st0" d="M834.8,468c-2.6,2.3-3.9,4.6-4.1,7.2c3.7-0.2,7.2-0.9,10.5-1.8c0.2-1.4,0.4-2.7,0.7-4
			C839.6,468.9,837.2,468.5,834.8,468z"/>
		<path class="st0" d="M818.5,413.5c-16.5-4.4-25-0.7-37.6,16.4c12.4,9.2,12.4,9.2,25.2-3.7c7.6,3.1,15.4,6.1,26.8,10.7
			C829.3,416.4,829.3,416.4,818.5,413.5z"/>
		<path class="st0" d="M811.1,444c-7.7,6.2-14.3,11.6-22,17.9c3.5,3.3,7.7,6.1,12.6,8.2c6.8-3.8,13.3-8.7,21.2-14
			C818.3,451.4,814.8,447.9,811.1,444z"/>
	</g>
	<g>
		<path class="st0" d="M974.9,507.8C974.9,507.8,974.9,507.8,974.9,507.8c-1.1-6.6-3.1-13-6.7-19.3
			C971.8,494.8,973.8,501.2,974.9,507.8z"/>
		<path class="st0" d="M961.9,479.7c2.5,2.9,4.6,5.8,6.3,8.8c3.6,6.2,5.6,12.7,6.7,19.3c12.1-21.7,11.8-49.3-4.3-64.3
			C974.7,456.9,981.4,470.1,961.9,479.7z"/>
		<path class="st0" d="M924.2,533.3c-3.3-15.1,0.8-26.8,17.6-33.1c-6.9-9.2-25.6-3.3-22.2-18.6c1.9-8.5,8.4-15.9,12.6-23.6
			c-0.7-7.4-1.4-15.2-2.1-23.6c-22.4,10.9-51.1,34.2-50.8,58.2c0,0.8,0,1.6,0,2.5c2.6,4.8,5.2,9.6,7.8,14.4c4.5,8.3,7,13.1,6.2,17.1
			c5.6,5.1,12.4,8.9,20,10.8c-1.1-3.5-2.4-7.1-3.7-10.7C916.5,529.7,920.4,531.5,924.2,533.3z M900.8,507.8c2.2-1.6,4.5-3.3,6.7-4.9
			c0.6,1.6,1.2,3.1,1.7,4.7C906.5,507.7,903.7,507.7,900.8,507.8z"/>
		<path class="st0" d="M933.9,432.5c-1.2,0.5-2.5,1.1-3.8,1.8c0.8,8.4,1.5,16.3,2.1,23.6c-4.3,7.6-10.8,15.1-12.6,23.6
			c-3.4,15.4,15.3,9.5,22.2,18.6c-16.8,6.3-20.9,18-17.6,33.1c0.9,2.2,1.6,4,2.3,5.6c6.7-0.2,13.7-1.7,20.5-4.8
			c12.2-5.6,21.7-15.1,27.9-26.2c-1.1-6.6-3.1-13-6.7-19.3c-1.7-3-3.8-5.9-6.3-8.8c19.5-9.6,12.8-22.8,8.8-36.3
			C962.5,435.9,950.4,431.4,933.9,432.5z"/>
		<path class="st0" d="M909.6,526.6c1.3,3.7,2.6,7.2,3.7,10.7c4.2,1.1,8.7,1.6,13.3,1.5c-0.7-1.6-1.4-3.4-2.3-5.6
			C920.4,531.5,916.5,529.7,909.6,526.6z"/>
		<path class="st0" d="M887.1,509.4c-2.6-4.8-5.2-9.6-7.8-14.4c0.2,12.8,5.6,23.8,14,31.5C894.1,522.5,891.6,517.7,887.1,509.4z"/>
		<path class="st0" d="M900.8,507.8c2.8-0.1,5.6-0.1,8.4-0.2c-0.6-1.6-1.1-3.1-1.7-4.7C905.3,504.5,903.1,506.2,900.8,507.8z"/>
	</g>
	<g>
		<path class="st0" d="M980.4,538.2c-0.5-1-1.1-2.1-1.6-3.1c0,0,0,0,0,0C979.3,536.1,979.9,537.2,980.4,538.2
			C980.4,538.2,980.4,538.2,980.4,538.2z"/>
		<path class="st0" d="M1049.4,557.8c2,6.1,4.9,12,7.7,17.9c0.1-10.3-3.2-20.3-9.6-28.3c0,2,0,4,0,6.1
			C1048.1,554.9,1048.7,556.3,1049.4,557.8z"/>
		<path class="st0" d="M1049.4,557.8c-0.3,4.6-0.5,9.1-0.8,13.2c-7.2,2.9-14,5.6-20.8,8.4c0,0,0,0,0,0.1c0,0-0.1,0-0.1,0.1
			c-0.2,3.6,0.8,9.5-0.8,10.3c-8.9,4.7-13.9,9.9-10.6,21.1c0.6,1.9-10.7,7.1-10.2,9.2c0.5,2.2,0.8,4.2,0.8,6.2
			c7.1,0,14.7-1.8,22.4-6.1c18.5-10.4,27.5-27.8,27.6-44.5C1054.2,569.8,1051.3,563.9,1049.4,557.8z"/>
		<path class="st0" d="M1026.5,552.8c0.5,10.4,0.9,18.5,1.3,26.5c6.8-2.7,13.6-5.5,20.8-8.4c0.2-4.1,0.5-8.6,0.8-13.2
			c-0.6-1.5-1.3-2.9-1.9-4.4c-9.8-4.2-9.4-8.4-6.6-12.6c-7.6-6.1-17.8-10.1-30.4-10.6C1012.3,540.9,1014,550.5,1026.5,552.8z"/>
		<path class="st0" d="M984.2,533.4c-0.4,0.1-0.7,0.2-1.1,0.3c-1.5,0.4-2.9,0.9-4.3,1.4c0.5,1,1.1,2.1,1.6,3.1
			C981.7,536.6,982.9,535,984.2,533.4z"/>
		<path class="st0" d="M1047.4,553.4c0-2,0-4,0-6.1c-1.9-2.4-4.1-4.6-6.6-6.6C1038.1,545,1037.6,549.2,1047.4,553.4z"/>
		<path class="st0" d="M1016.4,610.9c-3.3-11.2,1.7-16.4,10.6-21.1c1.6-0.9,0.6-6.7,0.8-10.3c-12.2,6.9-20.9,2.5-27-8.9
			c-2.9-5.5-5.1-11.4-7.6-17.2c-1.4,0.7-2.7,1.4-4.1,2.1c-3,7.1-4.2,16.6-9.5,20.9c-8.5,6.9-15.7,8.8-21.7,5.3
			c5.4,22.8,24.7,44.7,49.1,44.7c0-1.9-0.3-3.9-0.8-6.2C1005.6,618,1017,612.8,1016.4,610.9z M995.3,600.9c-5,8.3-11.3,8.9-16.6,1.1
			c-4.3-6.2-0.7-10.4,6.1-11.9c4.4,0.4,9.7-0.5,13,1.6C1003.5,595.4,1001,599.1,995.3,600.9z"/>
		<path class="st0" d="M979.6,576.3c5.3-4.3,6.5-13.8,9.5-20.9c-5.8-2.5-11.8-4.8-6.7-12.9c-0.7-1.4-1.4-2.9-2-4.3
			c-0.5-1-1.1-2.1-1.6-3.1c-20.2,7.8-25.4,27.4-20.9,46.5C963.9,585.1,971,583.2,979.6,576.3z"/>
		<path class="st0" d="M980.4,538.2c0.6,1.5,1.3,2.9,2,4.3c7.9-0.7,11.8,2.7,10.8,10.8c2.5,5.7,4.7,11.7,7.6,17.2
			c6,11.5,14.7,15.8,27,8.9c0,0,0.1,0,0.1-0.1c0,0,0,0,0-0.1c-0.4-8.1-0.8-16.1-1.3-26.5c-12.5-2.3-14.2-11.9-16.1-22.6
			c-7.8-0.3-16.5,0.6-26.2,3.2C982.9,535,981.7,536.6,980.4,538.2C980.4,538.2,980.4,538.2,980.4,538.2z"/>
		<path class="st0" d="M978.7,602c5.4,7.8,11.6,7.2,16.6-1.1c-3.5-3.6-7.1-7.2-10.6-10.8C977.9,591.6,974.4,595.8,978.7,602z"/>
		<path class="st0" d="M982.4,542.5c-5.1,8.1,0.9,10.4,6.7,12.9c1.4-0.7,2.7-1.4,4.1-2.1C994.2,545.2,990.3,541.8,982.4,542.5z"/>
		<path class="st0" d="M997.7,591.7c-3.3-2.1-8.6-1.2-13-1.6c3.5,3.6,7,7.2,10.6,10.8C1001,599.1,1003.5,595.4,997.7,591.7z"/>
	</g>
	<path class="st0" d="M1025.7,649.1c-47.6,20.6-17.4,76.5,27.7,70.9c20-1,45.8-23.1,38.8-46.4
		C1086.8,652.9,1044.7,636.1,1025.7,649.1z"/>
</g>
</svg>
